<svg width="77" height="116" viewBox="0 0 77 116" fill="none" xmlns="http://www.w3.org/2000/svg">
<path d="M16.8679 33.9963C15.3485 31.3682 14.73 28.5038 15.067 25.6568C15.404 22.8099 16.6862 20.0683 18.7999 17.6749C20.9137 15.2815 23.7938 13.3102 27.1852 11.9355C30.5766 10.5608 34.3745 9.82529 38.2425 9.79401C42.1106 9.76273 45.9294 10.4367 49.3607 11.7562C52.792 13.0757 55.7298 15 57.914 17.3586C60.0982 19.7173 61.4613 22.4375 61.8825 25.2783C62.3038 28.1191 61.7702 30.9928 60.3291 33.6449L54.6985 31.9749C55.7679 30.0069 56.1638 27.8745 55.8512 25.7664C55.5386 23.6584 54.5271 21.6398 52.9063 19.8896C51.2855 18.1393 49.1055 16.7114 46.5593 15.7322C44.0131 14.7531 41.1793 14.253 38.3089 14.2762C35.4386 14.2994 32.6203 14.8452 30.1037 15.8653C27.5871 16.8854 25.4499 18.3482 23.8814 20.1243C22.3128 21.9003 21.3614 23.9347 21.1113 26.0473C20.8612 28.1599 21.3202 30.2855 22.4477 32.2357L16.8679 33.9963Z" fill="#D49F89"/>
<rect x="9.98486" y="29.1865" width="57.0299" height="9.98504" rx="3.8404" fill="white"/>
<circle cx="58.7576" cy="33.2193" r="2.30424" fill="#272518"/>
<rect x="9.98486" y="57.6055" width="57.0299" height="9.98504" rx="3.8404" fill="white"/>
<rect x="9.98486" y="86.0244" width="57.0299" height="9.98504" rx="3.8404" fill="white"/>
<rect x="20.1619" y="29.1865" width="38.404" height="9.98504" rx="3.8404" transform="rotate(90 20.1619 29.1865)" fill="white"/>
<circle cx="19.0098" cy="33.2193" r="2.30424" fill="#272518"/>
<rect x="67.0146" y="57.6055" width="38.404" height="9.98504" rx="3.8404" transform="rotate(90 67.0146 57.6055)" fill="white"/>
<rect x="14.7856" y="97.7383" width="8.44888" height="8.44888" rx="4.22444" fill="#D49F89"/>
<circle cx="19.01" cy="101.963" r="1.9202" fill="#272518"/>
<rect x="56.4539" y="97.7383" width="8.44888" height="8.44888" rx="4.22444" fill="#D49F89"/>
<circle cx="60.678" cy="101.962" r="1.9202" fill="#272518"/>
</svg>
