<svg width="695" height="604" viewBox="0 0 695 604" fill="none" xmlns="http://www.w3.org/2000/svg">
<path d="M234.845 177.046C226.932 163.359 223.711 148.442 225.466 133.616C227.221 118.789 233.898 104.512 244.906 92.0475C255.914 79.5831 270.913 69.3168 288.575 62.1578C306.236 54.9989 326.015 51.1683 346.159 51.0054C366.303 50.8425 386.191 54.3524 404.06 61.224C421.93 68.0956 437.229 78.117 448.604 90.4004C459.979 102.684 467.078 116.85 469.271 131.644C471.465 146.439 468.687 161.404 461.182 175.216L431.859 166.519C437.428 156.27 439.49 145.165 437.862 134.186C436.234 123.208 430.966 112.696 422.525 103.581C414.085 94.466 402.731 87.0295 389.471 81.9304C376.211 76.8312 361.453 74.2267 346.505 74.3476C331.557 74.4684 316.88 77.3109 303.774 82.6233C290.668 87.9357 279.538 95.5539 271.369 104.803C263.201 114.053 258.246 124.647 256.943 135.649C255.641 146.651 258.031 157.721 263.903 167.877L234.845 177.046Z" fill="#D49F89"/>
<rect x="199" y="152" width="297" height="52" rx="20" fill="#86885E"/>
<circle cx="453" cy="173" r="12" fill="#523026"/>
<rect x="199" y="300" width="297" height="52" rx="20" fill="#86885E"/>
<rect x="199" y="448" width="297" height="52" rx="20" fill="#86885E"/>
<rect x="252" y="152" width="200" height="52" rx="20" transform="rotate(90 252 152)" fill="#86885E"/>
<circle cx="246" cy="173" r="12" fill="#523026"/>
<rect x="496" y="300" width="200" height="52" rx="20" transform="rotate(90 496 300)" fill="#86885E"/>
<rect x="224" y="509" width="44" height="44" rx="22" fill="#D49F89"/>
<circle cx="246" cy="531" r="10" fill="#523026"/>
<rect x="441" y="509" width="44" height="44" rx="22" fill="#D49F89"/>
<circle cx="463" cy="531" r="10" fill="#523026"/>
</svg>
