<svg width="136" height="48" viewBox="0 0 136 48" fill="none" xmlns="http://www.w3.org/2000/svg">
<g clip-path="url(#clip0_2456_3759)">
<path d="M47.0554 11.4871C46.4072 11.4871 45.8635 11.2675 45.4244 10.8284C44.9853 10.3893 44.7657 9.84561 44.7657 9.19739C44.7657 8.54916 44.9853 8.00549 45.4244 7.56637C45.8635 7.12725 46.4072 6.90769 47.0554 6.90769C47.6828 6.90769 48.216 7.12725 48.6551 7.56637C49.0942 8.00549 49.3138 8.54916 49.3138 9.19739C49.3138 9.84561 49.0942 10.3893 48.6551 10.8284C48.216 11.2675 47.6828 11.4871 47.0554 11.4871ZM48.8119 34.4468C48.8119 36.1406 48.3833 37.3638 47.5259 38.1166C46.6895 38.8903 45.4662 39.2772 43.8561 39.2772H42.0055V36.266H43.2288C43.9607 36.266 44.473 36.1197 44.7657 35.8269C45.0794 35.5551 45.2362 35.0951 45.2362 34.4468V13.7768H48.8119V34.4468ZM55.3257 11.4871C54.6775 11.4871 54.1338 11.2675 53.6947 10.8284C53.2556 10.3893 53.036 9.84561 53.036 9.19739C53.036 8.54916 53.2556 8.00549 53.6947 7.56637C54.1338 7.12725 54.6775 6.90769 55.3257 6.90769C55.953 6.90769 56.4862 7.12725 56.9254 7.56637C57.3645 8.00549 57.584 8.54916 57.584 9.19739C57.584 9.84561 57.3645 10.3893 56.9254 10.8284C56.4862 11.2675 55.953 11.4871 55.3257 11.4871ZM57.0822 13.7768V31.0593H53.5065V13.7768H57.0822ZM63.596 11.4871C62.9478 11.4871 62.4041 11.2675 61.965 10.8284C61.5258 10.3893 61.3063 9.84561 61.3063 9.19739C61.3063 8.54916 61.5258 8.00549 61.965 7.56637C62.4041 7.12725 62.9478 6.90769 63.596 6.90769C64.2233 6.90769 64.7565 7.12725 65.1956 7.56637C65.6348 8.00549 65.8543 8.54916 65.8543 9.19739C65.8543 9.84561 65.6348 10.3893 65.1956 10.8284C64.7565 11.2675 64.2233 11.4871 63.596 11.4871ZM65.3525 13.7768V31.0593H61.7768V13.7768H65.3525ZM68.8551 22.3396C68.8551 20.6041 69.2106 19.0671 69.9216 17.7289C70.6534 16.3906 71.6362 15.3555 72.87 14.6237C74.1246 13.8709 75.5151 13.4945 77.0416 13.4945C78.1708 13.4945 79.279 13.7454 80.3664 14.2473C81.4746 14.7282 82.3529 15.3764 83.0011 16.192V7.84866H86.6082V31.0593H83.0011V28.456C82.4156 29.2924 81.6001 29.9824 80.5546 30.5261C79.5299 31.0698 78.3485 31.3416 77.0102 31.3416C75.5047 31.3416 74.1246 30.9652 72.87 30.2125C71.6362 29.4388 70.6534 28.3723 69.9216 27.0131C69.2106 25.633 68.8551 24.0752 68.8551 22.3396ZM83.0011 22.4024C83.0011 21.2105 82.7502 20.1754 82.2483 19.2972C81.7674 18.4189 81.1296 17.7498 80.335 17.2898C79.5404 16.8297 78.6831 16.5997 77.763 16.5997C76.8429 16.5997 75.9856 16.8297 75.191 17.2898C74.3964 17.7289 73.7482 18.3876 73.2463 19.2658C72.7654 20.1231 72.5249 21.1477 72.5249 22.3396C72.5249 23.5315 72.7654 24.5771 73.2463 25.4762C73.7482 26.3754 74.3964 27.0654 75.191 27.5464C76.0065 28.0064 76.8639 28.2364 77.763 28.2364C78.6831 28.2364 79.5404 28.0064 80.335 27.5464C81.1296 27.0863 81.7674 26.4172 82.2483 25.539C82.7502 24.6398 83.0011 23.5943 83.0011 22.4024ZM90.1128 22.3396C90.1128 20.6041 90.4683 19.0671 91.1792 17.7289C91.9111 16.3906 92.8939 15.3555 94.1276 14.6237C95.3822 13.8709 96.7623 13.4945 98.2679 13.4945C99.6271 13.4945 100.809 13.7663 101.812 14.31C102.837 14.8328 103.652 15.4915 104.259 16.2861V13.7768H107.866V31.0593H104.259V28.4873C103.652 29.3028 102.826 29.9824 101.781 30.5261C100.735 31.0698 99.5434 31.3416 98.2052 31.3416C96.7205 31.3416 95.3613 30.9652 94.1276 30.2125C92.8939 29.4388 91.9111 28.3723 91.1792 27.0131C90.4683 25.633 90.1128 24.0752 90.1128 22.3396ZM104.259 22.4024C104.259 21.2105 104.008 20.1754 103.506 19.2972C103.025 18.4189 102.387 17.7498 101.593 17.2898C100.798 16.8297 99.9407 16.5997 99.0207 16.5997C98.1006 16.5997 97.2433 16.8297 96.4487 17.2898C95.6541 17.7289 95.0058 18.3876 94.504 19.2658C94.0231 20.1231 93.7826 21.1477 93.7826 22.3396C93.7826 23.5315 94.0231 24.5771 94.504 25.4762C95.0058 26.3754 95.6541 27.0654 96.4487 27.5464C97.2642 28.0064 98.1215 28.2364 99.0207 28.2364C99.9407 28.2364 100.798 28.0064 101.593 27.5464C102.387 27.0863 103.025 26.4172 103.506 25.539C104.008 24.6398 104.259 23.5943 104.259 22.4024ZM111.37 22.3396C111.37 20.6041 111.726 19.0671 112.437 17.7289C113.169 16.3906 114.152 15.3555 115.385 14.6237C116.64 13.8709 118.02 13.4945 119.526 13.4945C120.885 13.4945 122.066 13.7663 123.07 14.31C124.094 14.8328 124.91 15.4915 125.516 16.2861V13.7768H129.123V31.0593H125.516V28.4873C124.91 29.3028 124.084 29.9824 123.039 30.5261C121.993 31.0698 120.801 31.3416 119.463 31.3416C117.978 31.3416 116.619 30.9652 115.385 30.2125C114.152 29.4388 113.169 28.3723 112.437 27.0131C111.726 25.633 111.37 24.0752 111.37 22.3396ZM125.516 22.4024C125.516 21.2105 125.265 20.1754 124.764 19.2972C124.283 18.4189 123.645 17.7498 122.85 17.2898C122.056 16.8297 121.198 16.5997 120.278 16.5997C119.358 16.5997 118.501 16.8297 117.706 17.2898C116.912 17.7289 116.264 18.3876 115.762 19.2658C115.281 20.1231 115.04 21.1477 115.04 22.3396C115.04 23.5315 115.281 24.5771 115.762 25.4762C116.264 26.3754 116.912 27.0654 117.706 27.5464C118.522 28.0064 119.379 28.2364 120.278 28.2364C121.198 28.2364 122.056 28.0064 122.85 27.5464C123.645 27.0863 124.283 26.4172 124.764 25.539C125.265 24.6398 125.516 23.5943 125.516 22.4024Z" fill="#0B1F3A"/>
<rect x="44.5996" y="7.35132" width="4.9009" height="4.9009" rx="2.45045" fill="#25D366"/>
<rect x="52.9312" y="7.35132" width="4.9009" height="4.9009" rx="2.45045" fill="#25D366"/>
<rect x="61.2617" y="7.35132" width="4.9009" height="4.9009" rx="2.45045" fill="#25D366"/>
<path d="M54.1653 35.3014C54.1457 35.3347 54.1251 35.3592 54.1035 35.3749C54.0819 35.3906 54.0545 35.3984 54.0212 35.3984C53.9859 35.3984 53.9457 35.3828 53.9006 35.3514C53.8555 35.3181 53.7987 35.2818 53.7301 35.2426C53.6634 35.2014 53.583 35.1652 53.4889 35.1338C53.3948 35.1005 53.2821 35.0838 53.1508 35.0838C53.0273 35.0838 52.9185 35.1005 52.8244 35.1338C52.7322 35.1652 52.6548 35.2093 52.5921 35.2661C52.5293 35.321 52.4813 35.3867 52.448 35.4631C52.4166 35.5376 52.4009 35.619 52.4009 35.7072C52.4009 35.8209 52.4294 35.915 52.4862 35.9895C52.545 36.064 52.6215 36.1277 52.7156 36.1806C52.8097 36.2336 52.9165 36.2796 53.0361 36.3188C53.1557 36.358 53.2782 36.3992 53.4037 36.4423C53.5291 36.4835 53.6516 36.5315 53.7712 36.5864C53.8908 36.6413 53.9976 36.7109 54.0917 36.7952C54.1858 36.8775 54.2613 36.9795 54.3182 37.101C54.377 37.2206 54.4064 37.3676 54.4064 37.5421C54.4064 37.7283 54.374 37.9028 54.3093 38.0655C54.2466 38.2282 54.1545 38.3704 54.0329 38.4919C53.9114 38.6134 53.7614 38.7095 53.583 38.7801C53.4066 38.8487 53.2057 38.883 52.9802 38.883C52.845 38.883 52.7136 38.8693 52.5862 38.8418C52.4588 38.8163 52.3382 38.7801 52.2245 38.733C52.1108 38.684 52.004 38.6262 51.904 38.5595C51.806 38.4909 51.7177 38.4145 51.6393 38.3302L51.8187 38.0302C51.8364 38.0067 51.8569 37.9871 51.8805 37.9714C51.9059 37.9557 51.9344 37.9479 51.9657 37.9479C52.0069 37.9479 52.054 37.9695 52.1069 38.0126C52.1618 38.0557 52.2284 38.1037 52.3068 38.1567C52.3872 38.2076 52.4823 38.2547 52.5921 38.2978C52.7038 38.3409 52.8391 38.3625 52.9979 38.3625C53.1272 38.3625 53.2429 38.3458 53.3448 38.3125C53.4468 38.2772 53.5321 38.2282 53.6007 38.1655C53.6712 38.1008 53.7252 38.0234 53.7624 37.9332C53.7997 37.843 53.8183 37.743 53.8183 37.6333C53.8183 37.5098 53.7898 37.4088 53.733 37.3304C53.6761 37.252 53.6007 37.1863 53.5066 37.1334C53.4125 37.0804 53.3056 37.0353 53.1861 36.9981C53.0665 36.9609 52.944 36.9226 52.8185 36.8834C52.693 36.8423 52.5705 36.7952 52.4509 36.7423C52.3313 36.6893 52.2245 36.6207 52.1304 36.5364C52.0363 36.4502 51.9608 36.3433 51.904 36.2159C51.8471 36.0865 51.8187 35.9277 51.8187 35.7395C51.8187 35.5886 51.8481 35.4426 51.9069 35.3014C51.9657 35.1603 52.051 35.0358 52.1628 34.928C52.2765 34.8182 52.4156 34.7309 52.5803 34.6663C52.745 34.5996 52.9332 34.5663 53.1449 34.5663C53.3821 34.5663 53.5997 34.6045 53.7977 34.681C53.9976 34.7554 54.1711 34.8633 54.3182 35.0044L54.1653 35.3014ZM55.5835 36.2277C55.709 36.1003 55.8472 35.9973 55.9981 35.9189C56.151 35.8405 56.3265 35.8013 56.5245 35.8013C56.6892 35.8013 56.8332 35.8287 56.9567 35.8836C57.0822 35.9385 57.1871 36.016 57.2714 36.1159C57.3557 36.214 57.4194 36.3326 57.4625 36.4717C57.5057 36.6109 57.5272 36.7648 57.5272 36.9334V38.8359H56.9509V36.9334C56.9509 36.7197 56.9019 36.5541 56.8038 36.4365C56.7058 36.3169 56.5559 36.2571 56.3539 36.2571C56.2069 36.2571 56.0687 36.2924 55.9393 36.3629C55.8119 36.4316 55.6933 36.5257 55.5835 36.6452V38.8359H55.0101V34.4957H55.5835V36.2277ZM59.5742 35.8013C59.7938 35.8013 59.9918 35.8376 60.1682 35.9101C60.3466 35.9807 60.4976 36.0836 60.6211 36.2189C60.7465 36.3522 60.8426 36.5139 60.9092 36.704C60.9759 36.8922 61.0092 37.104 61.0092 37.3392C61.0092 37.5744 60.9759 37.7871 60.9092 37.9773C60.8426 38.1675 60.7465 38.3292 60.6211 38.4625C60.4976 38.5958 60.3466 38.6987 60.1682 38.7712C59.9918 38.8418 59.7938 38.8771 59.5742 38.8771C59.3527 38.8771 59.1528 38.8418 58.9744 38.7712C58.7979 38.6987 58.647 38.5958 58.5215 38.4625C58.3961 38.3292 58.299 38.1675 58.2304 37.9773C58.1638 37.7871 58.1304 37.5744 58.1304 37.3392C58.1304 37.104 58.1638 36.8922 58.2304 36.704C58.299 36.5139 58.3961 36.3522 58.5215 36.2189C58.647 36.0836 58.7979 35.9807 58.9744 35.9101C59.1528 35.8376 59.3527 35.8013 59.5742 35.8013ZM59.5742 38.4301C59.8565 38.4301 60.0673 38.3351 60.2065 38.1449C60.3456 37.9548 60.4152 37.6872 60.4152 37.3421C60.4152 36.9971 60.3456 36.7295 60.2065 36.5394C60.0673 36.3473 59.8565 36.2512 59.5742 36.2512C59.288 36.2512 59.0744 36.3473 58.9332 36.5394C58.794 36.7295 58.7244 36.9971 58.7244 37.3421C58.7244 37.6872 58.794 37.9548 58.9332 38.1449C59.0744 38.3351 59.288 38.4301 59.5742 38.4301ZM62.2227 38.1008C62.3168 38.2243 62.4178 38.3106 62.5256 38.3596C62.6354 38.4086 62.7579 38.4331 62.8931 38.4331C63.1558 38.4331 63.3587 38.339 63.5018 38.1508C63.6469 37.9606 63.7194 37.6842 63.7194 37.3216C63.7194 37.1314 63.7028 36.9697 63.6695 36.8364C63.6381 36.7011 63.591 36.5913 63.5283 36.507C63.4675 36.4208 63.3921 36.358 63.3019 36.3188C63.2117 36.2777 63.1098 36.2571 62.9961 36.2571C62.8294 36.2571 62.6844 36.2943 62.5609 36.3688C62.4393 36.4433 62.3266 36.5492 62.2227 36.6864V38.1008ZM62.1933 36.2953C62.256 36.2208 62.3227 36.1532 62.3933 36.0924C62.4658 36.0297 62.5432 35.9768 62.6256 35.9336C62.7079 35.8885 62.7951 35.8542 62.8873 35.8307C62.9814 35.8052 63.0813 35.7925 63.1872 35.7925C63.3578 35.7925 63.5116 35.8258 63.6489 35.8925C63.7881 35.9591 63.9067 36.0571 64.0047 36.1865C64.1027 36.3159 64.1782 36.4757 64.2311 36.6658C64.286 36.856 64.3134 37.0746 64.3134 37.3216C64.3134 37.5431 64.283 37.7489 64.2223 37.9391C64.1635 38.1273 64.0782 38.291 63.9664 38.4301C63.8567 38.5693 63.7214 38.6791 63.5607 38.7595C63.4019 38.8379 63.2225 38.8771 63.0225 38.8771C62.8441 38.8771 62.6912 38.8477 62.5638 38.7889C62.4364 38.7301 62.3227 38.6477 62.2227 38.5419V39.8387H61.6493V35.8483H61.9933C62.0737 35.8483 62.1237 35.8866 62.1433 35.963L62.1933 36.2953ZM68.7474 35.3014C68.7277 35.3347 68.7072 35.3592 68.6856 35.3749C68.664 35.3906 68.6366 35.3984 68.6033 35.3984C68.568 35.3984 68.5278 35.3828 68.4827 35.3514C68.4376 35.3181 68.3808 35.2818 68.3122 35.2426C68.2455 35.2014 68.1651 35.1652 68.071 35.1338C67.9769 35.1005 67.8642 35.0838 67.7329 35.0838C67.6094 35.0838 67.5006 35.1005 67.4065 35.1338C67.3143 35.1652 67.2369 35.2093 67.1742 35.2661C67.1114 35.321 67.0634 35.3867 67.0301 35.4631C66.9987 35.5376 66.983 35.619 66.983 35.7072C66.983 35.8209 67.0115 35.915 67.0683 35.9895C67.1271 36.064 67.2036 36.1277 67.2977 36.1806C67.3918 36.2336 67.4986 36.2796 67.6182 36.3188C67.7378 36.358 67.8603 36.3992 67.9858 36.4423C68.1112 36.4835 68.2337 36.5315 68.3533 36.5864C68.4729 36.6413 68.5797 36.7109 68.6738 36.7952C68.7679 36.8775 68.8434 36.9795 68.9003 37.101C68.9591 37.2206 68.9885 37.3676 68.9885 37.5421C68.9885 37.7283 68.9561 37.9028 68.8914 38.0655C68.8287 38.2282 68.7366 38.3704 68.615 38.4919C68.4935 38.6134 68.3435 38.7095 68.1651 38.7801C67.9887 38.8487 67.7878 38.883 67.5623 38.883C67.427 38.883 67.2957 38.8693 67.1683 38.8418C67.0409 38.8163 66.9203 38.7801 66.8066 38.733C66.6929 38.684 66.5861 38.6262 66.4861 38.5595C66.3881 38.4909 66.2998 38.4145 66.2214 38.3302L66.4008 38.0302C66.4184 38.0067 66.439 37.9871 66.4626 37.9714C66.488 37.9557 66.5165 37.9479 66.5478 37.9479C66.589 37.9479 66.636 37.9695 66.689 38.0126C66.7439 38.0557 66.8105 38.1037 66.8889 38.1567C66.9693 38.2076 67.0644 38.2547 67.1742 38.2978C67.2859 38.3409 67.4212 38.3625 67.58 38.3625C67.7093 38.3625 67.825 38.3458 67.9269 38.3125C68.0289 38.2772 68.1142 38.2282 68.1828 38.1655C68.2533 38.1008 68.3073 38.0234 68.3445 37.9332C68.3817 37.843 68.4004 37.743 68.4004 37.6333C68.4004 37.5098 68.3719 37.4088 68.3151 37.3304C68.2582 37.252 68.1828 37.1863 68.0887 37.1334C67.9946 37.0804 67.8877 37.0353 67.7682 36.9981C67.6486 36.9609 67.526 36.9226 67.4006 36.8834C67.2751 36.8423 67.1526 36.7952 67.033 36.7423C66.9134 36.6893 66.8066 36.6207 66.7125 36.5364C66.6184 36.4502 66.5429 36.3433 66.4861 36.2159C66.4292 36.0865 66.4008 35.9277 66.4008 35.7395C66.4008 35.5886 66.4302 35.4426 66.489 35.3014C66.5478 35.1603 66.6331 35.0358 66.7448 34.928C66.8585 34.8182 66.9977 34.7309 67.1624 34.6663C67.3271 34.5996 67.5153 34.5663 67.727 34.5663C67.9642 34.5663 68.1818 34.6045 68.3798 34.681C68.5797 34.7554 68.7532 34.8633 68.9003 35.0044L68.7474 35.3014ZM69.5807 38.8359V35.8483H69.9248C70.0051 35.8483 70.0551 35.8866 70.0747 35.963L70.1159 36.2483C70.2257 36.1169 70.3472 36.0101 70.4805 35.9277C70.6158 35.8434 70.7736 35.8013 70.954 35.8013C71.1519 35.8013 71.3127 35.8562 71.4362 35.966C71.5597 36.0738 71.6499 36.2208 71.7067 36.4071C71.7499 36.3012 71.8057 36.21 71.8743 36.1336C71.943 36.0571 72.0194 35.9944 72.1037 35.9454C72.188 35.8964 72.2772 35.8601 72.3713 35.8366C72.4673 35.8131 72.5644 35.8013 72.6624 35.8013C72.8212 35.8013 72.9623 35.8268 73.0858 35.8778C73.2113 35.9268 73.3172 35.9993 73.4034 36.0954C73.4897 36.1914 73.5553 36.31 73.6004 36.4512C73.6455 36.5923 73.6681 36.7531 73.6681 36.9334V38.8359H73.0917V36.9334C73.0917 36.7099 73.0427 36.5413 72.9447 36.4276C72.8486 36.3139 72.7075 36.2571 72.5213 36.2571C72.4389 36.2571 72.3605 36.2718 72.286 36.3012C72.2115 36.3286 72.1458 36.3708 72.089 36.4276C72.0341 36.4845 71.99 36.5551 71.9567 36.6394C71.9253 36.7236 71.9096 36.8217 71.9096 36.9334V38.8359H71.3333V36.9334C71.3333 36.7021 71.2872 36.5315 71.1951 36.4218C71.1029 36.312 70.9677 36.2571 70.7893 36.2571C70.6658 36.2571 70.5511 36.2894 70.4452 36.3541C70.3394 36.4188 70.2423 36.507 70.1541 36.6188V38.8359H69.5807ZM76.045 37.5098C75.8118 37.5176 75.6138 37.5362 75.451 37.5656C75.2883 37.5931 75.156 37.6303 75.0541 37.6774C74.9521 37.7244 74.8786 37.7803 74.8335 37.845C74.7884 37.9077 74.7659 37.9783 74.7659 38.0567C74.7659 38.1312 74.7777 38.1959 74.8012 38.2508C74.8267 38.3037 74.86 38.3478 74.9012 38.3831C74.9443 38.4164 74.9943 38.4409 75.0511 38.4566C75.108 38.4723 75.1697 38.4801 75.2364 38.4801C75.3246 38.4801 75.405 38.4713 75.4775 38.4537C75.552 38.436 75.6216 38.4115 75.6863 38.3802C75.751 38.3468 75.8127 38.3066 75.8715 38.2596C75.9304 38.2125 75.9882 38.1586 76.045 38.0979V37.5098ZM74.363 36.2659C74.5297 36.1071 74.71 35.9885 74.9041 35.9101C75.1001 35.8317 75.3148 35.7925 75.5481 35.7925C75.7186 35.7925 75.8696 35.8209 76.0009 35.8778C76.1323 35.9326 76.243 36.0101 76.3332 36.1101C76.4234 36.21 76.491 36.3296 76.5361 36.4688C76.5832 36.608 76.6067 36.7619 76.6067 36.9305V38.8359H76.3509C76.294 38.8359 76.2509 38.8271 76.2215 38.8095C76.1921 38.7899 76.1685 38.7546 76.1509 38.7036L76.0891 38.4419C76.0127 38.5125 75.9372 38.5752 75.8627 38.6301C75.7882 38.683 75.7098 38.7291 75.6275 38.7683C75.5471 38.8056 75.4608 38.834 75.3687 38.8536C75.2766 38.8732 75.1746 38.883 75.0629 38.883C74.9453 38.883 74.8345 38.8673 74.7306 38.8359C74.6287 38.8026 74.5395 38.7526 74.463 38.686C74.3866 38.6193 74.3258 38.536 74.2807 38.436C74.2376 38.336 74.216 38.2194 74.216 38.0861C74.216 37.9685 74.2474 37.8558 74.3101 37.7479C74.3748 37.6382 74.4787 37.5401 74.6218 37.4539C74.7669 37.3676 74.9551 37.2971 75.1864 37.2422C75.4197 37.1873 75.7059 37.1559 76.045 37.1481V36.9305C76.045 36.705 75.997 36.5364 75.901 36.4247C75.8049 36.313 75.6637 36.2571 75.4775 36.2571C75.352 36.2571 75.2462 36.2728 75.1599 36.3041C75.0756 36.3355 75.0021 36.3708 74.9394 36.41C74.8786 36.4472 74.8247 36.4815 74.7777 36.5129C74.7326 36.5443 74.6855 36.56 74.6365 36.56C74.5973 36.56 74.563 36.5492 74.5336 36.5276C74.5062 36.506 74.4836 36.4806 74.466 36.4512L74.363 36.2659ZM77.9154 36.4218C78.0114 36.2257 78.1271 36.0718 78.2623 35.9601C78.3976 35.8483 78.5603 35.7925 78.7505 35.7925C78.8152 35.7925 78.8759 35.8003 78.9328 35.816C78.9916 35.8297 79.0426 35.8513 79.0857 35.8807L79.0475 36.313C79.0337 36.3659 79.0014 36.3923 78.9504 36.3923C78.923 36.3923 78.8818 36.3874 78.8269 36.3776C78.772 36.3659 78.7132 36.36 78.6505 36.36C78.5584 36.36 78.477 36.3737 78.4064 36.4012C78.3359 36.4267 78.2721 36.4659 78.2153 36.5188C78.1604 36.5698 78.1114 36.6335 78.0683 36.7099C78.0251 36.7844 77.985 36.8697 77.9477 36.9658V38.8359H77.3743V35.8483H77.7036C77.7664 35.8483 77.8085 35.8601 77.8301 35.8836C77.8536 35.9052 77.8703 35.9444 77.8801 36.0013L77.9154 36.4218ZM80.4631 38.883C80.222 38.883 80.0357 38.8154 79.9044 38.6801C79.775 38.5448 79.7103 38.3517 79.7103 38.1008V36.313H79.3633C79.33 36.313 79.3016 36.3032 79.2781 36.2835C79.2565 36.262 79.2457 36.2306 79.2457 36.1895V35.9571L79.7309 35.8895L79.8603 34.9985C79.8681 34.9652 79.8828 34.9397 79.9044 34.9221C79.9279 34.9025 79.9573 34.8927 79.9926 34.8927H80.2837V35.8954H81.1306V36.313H80.2837V38.0626C80.2837 38.1802 80.3122 38.2684 80.369 38.3272C80.4278 38.3841 80.5023 38.4125 80.5925 38.4125C80.6454 38.4125 80.6905 38.4056 80.7278 38.3919C80.767 38.3782 80.8003 38.3635 80.8277 38.3478C80.8552 38.3302 80.8787 38.3145 80.8983 38.3008C80.9179 38.287 80.9356 38.2802 80.9512 38.2802C80.9708 38.2802 80.9855 38.2851 80.9953 38.2949C81.0071 38.3027 81.0189 38.3164 81.0306 38.336L81.2012 38.6125C81.1071 38.6987 80.9953 38.7654 80.866 38.8124C80.7366 38.8595 80.6023 38.883 80.4631 38.883ZM83.6205 37.0099C83.6205 36.8962 83.6038 36.7913 83.5705 36.6952C83.5392 36.5992 83.4921 36.5159 83.4294 36.4453C83.3666 36.3747 83.2902 36.3198 83.2 36.2806C83.1098 36.2414 83.0059 36.2218 82.8883 36.2218C82.6472 36.2218 82.457 36.2914 82.3179 36.4306C82.1806 36.5698 82.0934 36.7629 82.0561 37.0099H83.6205ZM84.0939 38.4096C84.0234 38.4919 83.942 38.5634 83.8499 38.6242C83.7577 38.683 83.6597 38.7311 83.5558 38.7683C83.4519 38.8056 83.3441 38.833 83.2324 38.8506C83.1226 38.8683 83.0138 38.8771 82.906 38.8771C82.7001 38.8771 82.509 38.8428 82.3326 38.7742C82.1581 38.7036 82.0062 38.6017 81.8768 38.4684C81.7493 38.3331 81.6494 38.1665 81.5768 37.9685C81.5063 37.7685 81.471 37.5392 81.471 37.2804C81.471 37.0726 81.5033 36.8795 81.568 36.7011C81.6327 36.5208 81.7248 36.3639 81.8444 36.2306C81.966 36.0973 82.114 35.9924 82.2884 35.916C82.4629 35.8395 82.659 35.8013 82.8766 35.8013C83.0589 35.8013 83.2265 35.8317 83.3794 35.8925C83.5343 35.9513 83.6676 36.0375 83.7793 36.1512C83.891 36.2649 83.9783 36.4051 84.041 36.5717C84.1057 36.7384 84.138 36.9285 84.138 37.1422C84.138 37.2304 84.1282 37.2902 84.1086 37.3216C84.089 37.351 84.0528 37.3657 83.9998 37.3657H82.0414C82.0473 37.5441 82.0728 37.6999 82.1179 37.8332C82.163 37.9646 82.2247 38.0743 82.3031 38.1626C82.3835 38.2508 82.4786 38.3164 82.5884 38.3596C82.6982 38.4027 82.8207 38.4243 82.9559 38.4243C83.0834 38.4243 83.1932 38.4096 83.2853 38.3802C83.3794 38.3507 83.4598 38.3194 83.5264 38.2861C83.595 38.2508 83.6519 38.2184 83.697 38.189C83.744 38.1596 83.7852 38.1449 83.8205 38.1449C83.8675 38.1449 83.9038 38.1626 83.9293 38.1978L84.0939 38.4096ZM85.2954 36.4218C85.3915 36.2257 85.5071 36.0718 85.6424 35.9601C85.7777 35.8483 85.9404 35.7925 86.1305 35.7925C86.1952 35.7925 86.256 35.8003 86.3129 35.816C86.3717 35.8297 86.4226 35.8513 86.4658 35.8807L86.4275 36.313C86.4138 36.3659 86.3815 36.3923 86.3305 36.3923C86.3031 36.3923 86.2619 36.3874 86.207 36.3776C86.1521 36.3659 86.0933 36.36 86.0306 36.36C85.9384 36.36 85.8571 36.3737 85.7865 36.4012C85.7159 36.4267 85.6522 36.4659 85.5954 36.5188C85.5405 36.5698 85.4915 36.6335 85.4483 36.7099C85.4052 36.7844 85.365 36.8697 85.3278 36.9658V38.8359H84.7544V35.8483H85.0837C85.1464 35.8483 85.1886 35.8601 85.2102 35.8836C85.2337 35.9052 85.2503 35.9444 85.2601 36.0013L85.2954 36.4218ZM86.5843 38.4919C86.5843 38.439 86.5941 38.389 86.6137 38.3419C86.6333 38.2949 86.6597 38.2537 86.6931 38.2184C86.7283 38.1831 86.7695 38.1557 86.8166 38.1361C86.8636 38.1145 86.9146 38.1037 86.9695 38.1037C87.0224 38.1037 87.0724 38.1145 87.1194 38.1361C87.1665 38.1557 87.2076 38.1831 87.2429 38.2184C87.2782 38.2537 87.3057 38.2949 87.3253 38.3419C87.3468 38.389 87.3576 38.439 87.3576 38.4919C87.3576 38.5468 87.3468 38.5978 87.3253 38.6448C87.3057 38.6919 87.2782 38.733 87.2429 38.7683C87.2076 38.8036 87.1665 38.831 87.1194 38.8506C87.0724 38.8702 87.0224 38.88 86.9695 38.88C86.9146 38.88 86.8636 38.8702 86.8166 38.8506C86.7695 38.831 86.7283 38.8036 86.6931 38.7683C86.6597 38.733 86.6333 38.6919 86.6137 38.6448C86.5941 38.5978 86.5843 38.5468 86.5843 38.4919ZM91.8582 35.3014C91.8386 35.3347 91.818 35.3592 91.7964 35.3749C91.7748 35.3906 91.7474 35.3984 91.7141 35.3984C91.6788 35.3984 91.6386 35.3828 91.5935 35.3514C91.5484 35.3181 91.4916 35.2818 91.423 35.2426C91.3563 35.2014 91.2759 35.1652 91.1818 35.1338C91.0877 35.1005 90.975 35.0838 90.8437 35.0838C90.7202 35.0838 90.6114 35.1005 90.5173 35.1338C90.4251 35.1652 90.3477 35.2093 90.285 35.2661C90.2222 35.321 90.1742 35.3867 90.1409 35.4631C90.1095 35.5376 90.0938 35.619 90.0938 35.7072C90.0938 35.8209 90.1223 35.915 90.1791 35.9895C90.2379 36.064 90.3144 36.1277 90.4085 36.1806C90.5026 36.2336 90.6094 36.2796 90.729 36.3188C90.8486 36.358 90.9711 36.3992 91.0966 36.4423C91.222 36.4835 91.3445 36.5315 91.4641 36.5864C91.5837 36.6413 91.6905 36.7109 91.7846 36.7952C91.8787 36.8775 91.9542 36.9795 92.0111 37.101C92.0699 37.2206 92.0993 37.3676 92.0993 37.5421C92.0993 37.7283 92.0669 37.9028 92.0022 38.0655C91.9395 38.2282 91.8474 38.3704 91.7258 38.4919C91.6043 38.6134 91.4543 38.7095 91.2759 38.7801C91.0995 38.8487 90.8986 38.883 90.6731 38.883C90.5379 38.883 90.4065 38.8693 90.2791 38.8418C90.1517 38.8163 90.0311 38.7801 89.9174 38.733C89.8037 38.684 89.6969 38.6262 89.5969 38.5595C89.4989 38.4909 89.4106 38.4145 89.3322 38.3302L89.5116 38.0302C89.5293 38.0067 89.5498 37.9871 89.5734 37.9714C89.5988 37.9557 89.6273 37.9479 89.6586 37.9479C89.6998 37.9479 89.7469 37.9695 89.7998 38.0126C89.8547 38.0557 89.9213 38.1037 89.9997 38.1567C90.0801 38.2076 90.1752 38.2547 90.285 38.2978C90.3967 38.3409 90.532 38.3625 90.6908 38.3625C90.8201 38.3625 90.9358 38.3458 91.0377 38.3125C91.1397 38.2772 91.225 38.2282 91.2936 38.1655C91.3641 38.1008 91.4181 38.0234 91.4553 37.9332C91.4926 37.843 91.5112 37.743 91.5112 37.6333C91.5112 37.5098 91.4828 37.4088 91.4259 37.3304C91.369 37.252 91.2936 37.1863 91.1995 37.1334C91.1054 37.0804 90.9985 37.0353 90.879 36.9981C90.7594 36.9609 90.6369 36.9226 90.5114 36.8834C90.3859 36.8423 90.2634 36.7952 90.1438 36.7423C90.0242 36.6893 89.9174 36.6207 89.8233 36.5364C89.7292 36.4502 89.6537 36.3433 89.5969 36.2159C89.54 36.0865 89.5116 35.9277 89.5116 35.7395C89.5116 35.5886 89.541 35.4426 89.5998 35.3014C89.6586 35.1603 89.7439 35.0358 89.8557 34.928C89.9694 34.8182 90.1085 34.7309 90.2732 34.6663C90.4379 34.5996 90.6261 34.5663 90.8378 34.5663C91.075 34.5663 91.2926 34.6045 91.4906 34.681C91.6905 34.7554 91.864 34.8633 92.0111 35.0044L91.8582 35.3014ZM93.2764 36.2277C93.4019 36.1003 93.5401 35.9973 93.691 35.9189C93.8439 35.8405 94.0194 35.8013 94.2174 35.8013C94.3821 35.8013 94.5261 35.8287 94.6497 35.8836C94.7751 35.9385 94.88 36.016 94.9643 36.1159C95.0486 36.214 95.1123 36.3326 95.1554 36.4717C95.1986 36.6109 95.2201 36.7648 95.2201 36.9334V38.8359H94.6438V36.9334C94.6438 36.7197 94.5948 36.5541 94.4967 36.4365C94.3987 36.3169 94.2488 36.2571 94.0468 36.2571C93.8998 36.2571 93.7616 36.2924 93.6322 36.3629C93.5048 36.4316 93.3862 36.5257 93.2764 36.6452V38.8359H92.703V34.4957H93.2764V36.2277ZM97.2671 35.8013C97.4867 35.8013 97.6847 35.8376 97.8611 35.9101C98.0395 35.9807 98.1905 36.0836 98.314 36.2189C98.4394 36.3522 98.5355 36.5139 98.6022 36.704C98.6688 36.8922 98.7021 37.104 98.7021 37.3392C98.7021 37.5744 98.6688 37.7871 98.6022 37.9773C98.5355 38.1675 98.4394 38.3292 98.314 38.4625C98.1905 38.5958 98.0395 38.6987 97.8611 38.7712C97.6847 38.8418 97.4867 38.8771 97.2671 38.8771C97.0456 38.8771 96.8457 38.8418 96.6673 38.7712C96.4908 38.6987 96.3399 38.5958 96.2144 38.4625C96.089 38.3292 95.9919 38.1675 95.9233 37.9773C95.8567 37.7871 95.8233 37.5744 95.8233 37.3392C95.8233 37.104 95.8567 36.8922 95.9233 36.704C95.9919 36.5139 96.089 36.3522 96.2144 36.2189C96.3399 36.0836 96.4908 35.9807 96.6673 35.9101C96.8457 35.8376 97.0456 35.8013 97.2671 35.8013ZM97.2671 38.4301C97.5494 38.4301 97.7602 38.3351 97.8994 38.1449C98.0385 37.9548 98.1081 37.6872 98.1081 37.3421C98.1081 36.9971 98.0385 36.7295 97.8994 36.5394C97.7602 36.3473 97.5494 36.2512 97.2671 36.2512C96.9809 36.2512 96.7673 36.3473 96.6261 36.5394C96.4869 36.7295 96.4173 36.9971 96.4173 37.3421C96.4173 37.6872 96.4869 37.9548 96.6261 38.1449C96.7673 38.3351 96.9809 38.4301 97.2671 38.4301ZM99.9156 38.1008C100.01 38.2243 100.111 38.3106 100.218 38.3596C100.328 38.4086 100.451 38.4331 100.586 38.4331C100.849 38.4331 101.052 38.339 101.195 38.1508C101.34 37.9606 101.412 37.6842 101.412 37.3216C101.412 37.1314 101.396 36.9697 101.362 36.8364C101.331 36.7011 101.284 36.5913 101.221 36.507C101.16 36.4208 101.085 36.358 100.995 36.3188C100.905 36.2777 100.803 36.2571 100.689 36.2571C100.522 36.2571 100.377 36.2943 100.254 36.3688C100.132 36.4433 100.02 36.5492 99.9156 36.6864V38.1008ZM99.8862 36.2953C99.9489 36.2208 100.016 36.1532 100.086 36.0924C100.159 36.0297 100.236 35.9768 100.318 35.9336C100.401 35.8885 100.488 35.8542 100.58 35.8307C100.674 35.8052 100.774 35.7925 100.88 35.7925C101.051 35.7925 101.205 35.8258 101.342 35.8925C101.481 35.9591 101.6 36.0571 101.698 36.1865C101.796 36.3159 101.871 36.4757 101.924 36.6658C101.979 36.856 102.006 37.0746 102.006 37.3216C102.006 37.5431 101.976 37.7489 101.915 37.9391C101.856 38.1273 101.771 38.291 101.659 38.4301C101.55 38.5693 101.414 38.6791 101.254 38.7595C101.095 38.8379 100.915 38.8771 100.715 38.8771C100.537 38.8771 100.384 38.8477 100.257 38.7889C100.129 38.7301 100.016 38.6477 99.9156 38.5419V39.8387H99.3422V35.8483H99.6862C99.7666 35.8483 99.8166 35.8866 99.8362 35.963L99.8862 36.2953ZM106.304 37.2627L105.677 35.6249C105.632 35.5131 105.587 35.372 105.542 35.2014C105.521 35.2857 105.498 35.3641 105.475 35.4367C105.453 35.5092 105.431 35.5739 105.41 35.6307L104.786 37.2627H106.304ZM107.542 38.8359H107.06C107.005 38.8359 106.96 38.8222 106.924 38.7948C106.889 38.7673 106.863 38.732 106.848 38.6889L106.474 37.7097H104.613L104.24 38.6889C104.226 38.7262 104.2 38.7605 104.163 38.7918C104.126 38.8212 104.081 38.8359 104.028 38.8359H103.546L105.228 34.6133H105.86L107.542 38.8359ZM108.478 36.263C108.543 36.1944 108.61 36.1316 108.681 36.0748C108.751 36.0179 108.826 35.9699 108.904 35.9307C108.985 35.8895 109.07 35.8582 109.16 35.8366C109.252 35.8131 109.35 35.8013 109.454 35.8013C109.619 35.8013 109.763 35.8287 109.886 35.8836C110.012 35.9385 110.117 36.016 110.201 36.1159C110.285 36.214 110.349 36.3326 110.392 36.4717C110.435 36.6109 110.457 36.7648 110.457 36.9334V38.8359H109.881V36.9334C109.881 36.7197 109.832 36.5541 109.734 36.4365C109.636 36.3169 109.486 36.2571 109.284 36.2571C109.137 36.2571 108.998 36.2924 108.869 36.3629C108.742 36.4316 108.623 36.5257 108.513 36.6452V38.8359H107.94V35.8483H108.284C108.364 35.8483 108.414 35.8866 108.434 35.963L108.478 36.263ZM113.767 35.8483L112.109 39.7034C112.091 39.7465 112.068 39.7799 112.038 39.8034C112.009 39.8269 111.966 39.8387 111.909 39.8387H111.482L112.029 38.6477L110.803 35.8483H111.303C111.352 35.8483 111.39 35.8601 111.418 35.8836C111.445 35.9072 111.465 35.9336 111.477 35.963L112.235 37.7568C112.251 37.8018 112.266 37.8479 112.279 37.895C112.295 37.9401 112.308 37.9851 112.318 38.0302C112.331 37.9832 112.346 37.9371 112.362 37.892C112.377 37.845 112.394 37.7989 112.412 37.7538L113.144 35.963C113.158 35.9297 113.179 35.9023 113.209 35.8807C113.238 35.8591 113.271 35.8483 113.309 35.8483H113.767ZM118.361 35.8483L117.399 38.8359H116.94C116.886 38.8359 116.848 38.7997 116.829 38.7271L116.199 36.7805C116.184 36.7315 116.17 36.6835 116.158 36.6364C116.146 36.5874 116.136 36.5384 116.126 36.4894C116.108 36.5913 116.084 36.6903 116.052 36.7864L115.414 38.7271C115.395 38.7997 115.353 38.8359 115.288 38.8359H114.853L113.888 35.8483H114.341C114.386 35.8483 114.423 35.8591 114.453 35.8807C114.484 35.9023 114.505 35.9297 114.514 35.963L115.053 37.7979C115.07 37.8724 115.086 37.945 115.1 38.0155C115.113 38.0861 115.126 38.1567 115.138 38.2272C115.156 38.1567 115.174 38.0861 115.194 38.0155C115.215 37.945 115.237 37.8724 115.258 37.7979L115.855 35.9513C115.865 35.9179 115.884 35.8915 115.911 35.8719C115.939 35.8503 115.972 35.8395 116.011 35.8395H116.261C116.304 35.8395 116.34 35.8503 116.367 35.8719C116.396 35.8915 116.416 35.9179 116.426 35.9513L117.008 37.7979C117.03 37.8724 117.05 37.9459 117.07 38.0185C117.089 38.089 117.107 38.1606 117.123 38.2331C117.134 38.1626 117.148 38.092 117.164 38.0214C117.18 37.9489 117.197 37.8744 117.217 37.7979L117.764 35.963C117.774 35.9297 117.793 35.9023 117.823 35.8807C117.854 35.8591 117.889 35.8483 117.928 35.8483H118.361ZM119.42 36.2277C119.545 36.1003 119.683 35.9973 119.834 35.9189C119.987 35.8405 120.163 35.8013 120.361 35.8013C120.525 35.8013 120.669 35.8287 120.793 35.8836C120.918 35.9385 121.023 36.016 121.108 36.1159C121.192 36.214 121.256 36.3326 121.299 36.4717C121.342 36.6109 121.363 36.7648 121.363 36.9334V38.8359H120.787V36.9334C120.787 36.7197 120.738 36.5541 120.64 36.4365C120.542 36.3169 120.392 36.2571 120.19 36.2571C120.043 36.2571 119.905 36.2924 119.775 36.3629C119.648 36.4316 119.529 36.5257 119.42 36.6452V38.8359H118.846V34.4957H119.42V36.2277ZM124.116 37.0099C124.116 36.8962 124.099 36.7913 124.066 36.6952C124.035 36.5992 123.988 36.5159 123.925 36.4453C123.862 36.3747 123.786 36.3198 123.696 36.2806C123.605 36.2414 123.502 36.2218 123.384 36.2218C123.143 36.2218 122.953 36.2914 122.813 36.4306C122.676 36.5698 122.589 36.7629 122.552 37.0099H124.116ZM124.59 38.4096C124.519 38.4919 124.438 38.5634 124.345 38.6242C124.253 38.683 124.155 38.7311 124.051 38.7683C123.948 38.8056 123.84 38.833 123.728 38.8506C123.618 38.8683 123.509 38.8771 123.402 38.8771C123.196 38.8771 123.005 38.8428 122.828 38.7742C122.654 38.7036 122.502 38.6017 122.372 38.4684C122.245 38.3331 122.145 38.1665 122.072 37.9685C122.002 37.7685 121.967 37.5392 121.967 37.2804C121.967 37.0726 121.999 36.8795 122.064 36.7011C122.128 36.5208 122.22 36.3639 122.34 36.2306C122.462 36.0973 122.61 35.9924 122.784 35.916C122.959 35.8395 123.155 35.8013 123.372 35.8013C123.554 35.8013 123.722 35.8317 123.875 35.8925C124.03 35.9513 124.163 36.0375 124.275 36.1512C124.387 36.2649 124.474 36.4051 124.537 36.5717C124.601 36.7384 124.634 36.9285 124.634 37.1422C124.634 37.2304 124.624 37.2902 124.604 37.3216C124.585 37.351 124.548 37.3657 124.495 37.3657H122.537C122.543 37.5441 122.568 37.6999 122.614 37.8332C122.659 37.9646 122.72 38.0743 122.799 38.1626C122.879 38.2508 122.974 38.3164 123.084 38.3596C123.194 38.4027 123.316 38.4243 123.452 38.4243C123.579 38.4243 123.689 38.4096 123.781 38.3802C123.875 38.3507 123.955 38.3194 124.022 38.2861C124.091 38.2508 124.147 38.2184 124.193 38.189C124.24 38.1596 124.281 38.1449 124.316 38.1449C124.363 38.1449 124.399 38.1626 124.425 38.1978L124.59 38.4096ZM125.791 36.4218C125.887 36.2257 126.003 36.0718 126.138 35.9601C126.273 35.8483 126.436 35.7925 126.626 35.7925C126.691 35.7925 126.752 35.8003 126.808 35.816C126.867 35.8297 126.918 35.8513 126.961 35.8807L126.923 36.313C126.909 36.3659 126.877 36.3923 126.826 36.3923C126.799 36.3923 126.757 36.3874 126.703 36.3776C126.648 36.3659 126.589 36.36 126.526 36.36C126.434 36.36 126.353 36.3737 126.282 36.4012C126.212 36.4267 126.148 36.4659 126.091 36.5188C126.036 36.5698 125.987 36.6335 125.944 36.7099C125.901 36.7844 125.861 36.8697 125.823 36.9658V38.8359H125.25V35.8483H125.579C125.642 35.8483 125.684 35.8601 125.706 35.8836C125.729 35.9052 125.746 35.9444 125.756 36.0013L125.791 36.4218ZM129.274 37.0099C129.274 36.8962 129.257 36.7913 129.224 36.6952C129.192 36.5992 129.145 36.5159 129.082 36.4453C129.02 36.3747 128.943 36.3198 128.853 36.2806C128.763 36.2414 128.659 36.2218 128.541 36.2218C128.3 36.2218 128.11 36.2914 127.971 36.4306C127.834 36.5698 127.746 36.7629 127.709 37.0099H129.274ZM129.747 38.4096C129.676 38.4919 129.595 38.5634 129.503 38.6242C129.411 38.683 129.313 38.7311 129.209 38.7683C129.105 38.8056 128.997 38.833 128.885 38.8506C128.776 38.8683 128.667 38.8771 128.559 38.8771C128.353 38.8771 128.162 38.8428 127.986 38.7742C127.811 38.7036 127.659 38.6017 127.53 38.4684C127.402 38.3331 127.302 38.1665 127.23 37.9685C127.159 37.7685 127.124 37.5392 127.124 37.2804C127.124 37.0726 127.156 36.8795 127.221 36.7011C127.286 36.5208 127.378 36.3639 127.497 36.2306C127.619 36.0973 127.767 35.9924 127.941 35.916C128.116 35.8395 128.312 35.8013 128.53 35.8013C128.712 35.8013 128.88 35.8317 129.032 35.8925C129.187 35.9513 129.321 36.0375 129.432 36.1512C129.544 36.2649 129.631 36.4051 129.694 36.5717C129.759 36.7384 129.791 36.9285 129.791 37.1422C129.791 37.2304 129.781 37.2902 129.762 37.3216C129.742 37.351 129.706 37.3657 129.653 37.3657H127.694C127.7 37.5441 127.726 37.6999 127.771 37.8332C127.816 37.9646 127.878 38.0743 127.956 38.1626C128.037 38.2508 128.132 38.3164 128.241 38.3596C128.351 38.4027 128.474 38.4243 128.609 38.4243C128.736 38.4243 128.846 38.4096 128.938 38.3802C129.032 38.3507 129.113 38.3194 129.179 38.2861C129.248 38.2508 129.305 38.2184 129.35 38.189C129.397 38.1596 129.438 38.1449 129.474 38.1449C129.521 38.1449 129.557 38.1626 129.582 38.1978L129.747 38.4096Z" fill="#25D366"/>
<g filter="url(#filter0_d_2456_3759)">
<rect x="10.2915" y="7.35132" width="24.5045" height="24.5045" rx="3.92072" fill="#25D366"/>
<g clip-path="url(#clip1_2456_3759)">
<path d="M23.2103 26.5933C24.6507 24.7804 27.9358 20.3867 27.9358 17.9187C27.9358 14.9255 25.5211 12.4971 22.5448 12.4971C19.5685 12.4971 17.1538 14.9255 17.1538 17.9187C17.1538 20.3867 20.4389 24.7804 21.8793 26.5933C22.2247 27.0253 22.8649 27.0253 23.2103 26.5933ZM22.5448 16.1115C23.0214 16.1115 23.4785 16.3019 23.8155 16.6408C24.1525 16.9797 24.3418 17.4394 24.3418 17.9187C24.3418 18.398 24.1525 18.8577 23.8155 19.1966C23.4785 19.5355 23.0214 19.7259 22.5448 19.7259C22.0682 19.7259 21.6111 19.5355 21.2741 19.1966C20.9371 18.8577 20.7478 18.398 20.7478 17.9187C20.7478 17.4394 20.9371 16.9797 21.2741 16.6408C21.6111 16.3019 22.0682 16.1115 22.5448 16.1115Z" fill="#0B1F3A"/>
</g>
</g>
</g>
<defs>
<filter id="filter0_d_2456_3759" x="9.31132" y="7.35132" width="26.4648" height="26.4648" filterUnits="userSpaceOnUse" color-interpolation-filters="sRGB">
<feFlood flood-opacity="0" result="BackgroundImageFix"/>
<feColorMatrix in="SourceAlpha" type="matrix" values="0 0 0 0 0 0 0 0 0 0 0 0 0 0 0 0 0 0 127 0" result="hardAlpha"/>
<feOffset dy="0.98018"/>
<feGaussianBlur stdDeviation="0.49009"/>
<feComposite in2="hardAlpha" operator="out"/>
<feColorMatrix type="matrix" values="0 0 0 0 0 0 0 0 0 0 0 0 0 0 0 0 0 0 0.25 0"/>
<feBlend mode="normal" in2="BackgroundImageFix" result="effect1_dropShadow_2456_3759"/>
<feBlend mode="normal" in="SourceGraphic" in2="effect1_dropShadow_2456_3759" result="shape"/>
</filter>
<clipPath id="clip0_2456_3759">
<rect width="136" height="47.0486" fill="white"/>
</clipPath>
<clipPath id="clip1_2456_3759">
<rect width="10.8126" height="14.4168" fill="white" transform="translate(17.1533 12.4973)"/>
</clipPath>
</defs>
</svg>
