<svg width="226" height="226" viewBox="93 161 226 226" fill="none" xmlns="http://www.w3.org/2000/svg">
<g filter="url(#filter0_f_icon)">
<rect x="145.07" y="384.787" width="121.866" height="3.91308" rx="1.95654" fill="black"/>
</g>
<g clip-path="url(#clip0_icon)">
<path d="M206.002 387.003C206.002 387.003 126.9 283.833 126.9 240.101C126.9 229.713 128.946 219.427 132.922 209.83C136.897 200.233 142.723 191.513 150.069 184.168C157.414 176.823 166.134 170.996 175.731 167.021C185.328 163.046 195.614 161 206.002 161C216.389 161 226.675 163.046 236.272 167.021C245.869 170.996 254.589 176.823 261.935 184.168C269.28 191.513 275.106 200.233 279.082 209.83C283.057 219.427 285.103 229.713 285.103 240.101C285.103 283.833 206.002 387.003 206.002 387.003ZM206.002 262.702C211.996 262.702 217.744 260.32 221.982 256.082C226.221 251.844 228.602 246.095 228.602 240.101C228.602 234.107 226.221 228.359 221.982 224.12C217.744 219.882 211.996 217.501 206.002 217.501C200.008 217.501 194.259 219.882 190.021 224.12C185.782 228.359 183.401 234.107 183.401 240.101C183.401 246.095 185.782 251.844 190.021 256.082C194.259 260.32 200.008 262.702 206.002 262.702Z" fill="url(#paint0_linear_icon)"/>
<path fill-rule="evenodd" clip-rule="evenodd" d="M206.002 199.445C202.505 199.445 199.152 200.837 196.679 203.314C194.207 205.792 192.818 209.152 192.818 212.656V216.43H219.185V212.656C219.185 209.152 217.796 205.792 215.324 203.314C212.851 200.837 209.498 199.445 206.002 199.445ZM230.485 216.43V212.656C230.485 206.149 227.906 199.908 223.314 195.307C218.723 190.706 212.495 188.121 206.002 188.121C199.508 188.121 193.281 190.706 188.689 195.307C184.097 199.908 181.518 206.149 181.518 212.656V216.43H173.984C168.975 216.43 164.515 219.737 163.144 224.621C159.927 236.096 157.034 248.68 157.034 264.39C157.034 270.791 159.181 276.385 163.159 280.62C167.114 284.825 172.651 287.46 179.062 288.441C185.97 289.498 194.536 290.253 206.002 290.253C217.467 290.253 226.033 289.498 232.941 288.441C239.352 287.46 244.889 284.818 248.837 280.62C252.829 276.385 254.969 270.791 254.969 264.39C254.969 248.688 252.076 236.088 248.859 224.621C248.194 222.255 246.774 220.173 244.817 218.693C242.859 217.212 240.471 216.415 238.019 216.423L230.485 216.43Z" fill="black"/>
<ellipse cx="178.021" cy="264.368" rx="6.99524" ry="6.99524" fill="#3BDA43"/>
<ellipse cx="206.001" cy="264.368" rx="6.99524" ry="6.99524" fill="#3BDA43"/>
<ellipse cx="233.984" cy="264.368" rx="6.99524" ry="6.99524" fill="#3BDA43"/>
</g>
<defs>
<filter id="filter0_f_icon" x="122.71" y="362.427" width="166.587" height="48.6343" filterUnits="userSpaceOnUse" color-interpolation-filters="sRGB">
<feFlood flood-opacity="0" result="BackgroundImageFix"/>
<feBlend mode="normal" in="SourceGraphic" in2="BackgroundImageFix" result="shape"/>
<feGaussianBlur stdDeviation="11.1803" result="effect1_foregroundBlur_icon"/>
</filter>
<linearGradient id="paint0_linear_icon" x1="206.002" y1="161" x2="206.002" y2="387.003" gradientUnits="userSpaceOnUse">
<stop stop-color="#3BDA43"/>
<stop offset="1" stop-color="#0D6412"/>
</linearGradient>
<clipPath id="clip0_icon">
<rect width="226.006" height="226.003" fill="white" transform="translate(93 161)"/>
</clipPath>
</defs>
</svg>
