<svg viewBox="110 190 500 170" fill="none" xmlns="http://www.w3.org/2000/svg">
<path d="M269.024 239.128C266.379 239.128 264.16 238.232 262.368 236.44C260.576 234.648 259.68 232.429 259.68 229.784C259.68 227.139 260.576 224.92 262.368 223.128C264.16 221.336 266.379 220.44 269.024 220.44C271.584 220.44 273.76 221.336 275.552 223.128C277.344 224.92 278.24 227.139 278.24 229.784C278.24 232.429 277.344 234.648 275.552 236.44C273.76 238.232 271.584 239.128 269.024 239.128ZM276.192 332.824C276.192 339.736 274.443 344.728 270.944 347.8C267.531 350.957 262.539 352.536 255.968 352.536H248.416V340.248H253.408C256.395 340.248 258.485 339.651 259.68 338.456C260.96 337.347 261.6 335.469 261.6 332.824V248.472H276.192V332.824ZM302.774 239.128C300.129 239.128 297.91 238.232 296.118 236.44C294.326 234.648 293.43 232.429 293.43 229.784C293.43 227.139 294.326 224.92 296.118 223.128C297.91 221.336 300.129 220.44 302.774 220.44C305.334 220.44 307.51 221.336 309.302 223.128C311.094 224.92 311.99 227.139 311.99 229.784C311.99 232.429 311.094 234.648 309.302 236.44C307.51 238.232 305.334 239.128 302.774 239.128ZM309.942 248.472V319H295.35V248.472H309.942ZM336.524 239.128C333.879 239.128 331.66 238.232 329.868 236.44C328.076 234.648 327.18 232.429 327.18 229.784C327.18 227.139 328.076 224.92 329.868 223.128C331.66 221.336 333.879 220.44 336.524 220.44C339.084 220.44 341.26 221.336 343.052 223.128C344.844 224.92 345.74 227.139 345.74 229.784C345.74 232.429 344.844 234.648 343.052 236.44C341.26 238.232 339.084 239.128 336.524 239.128ZM343.692 248.472V319H329.1V248.472H343.692ZM357.986 283.416C357.986 276.333 359.437 270.061 362.338 264.6C365.325 259.139 369.335 254.915 374.37 251.928C379.49 248.856 385.165 247.32 391.394 247.32C396.002 247.32 400.525 248.344 404.962 250.392C409.485 252.355 413.069 255 415.714 258.328V224.28H430.434V319H415.714V308.376C413.325 311.789 409.997 314.605 405.73 316.824C401.549 319.043 396.727 320.152 391.266 320.152C385.122 320.152 379.49 318.616 374.37 315.544C369.335 312.387 365.325 308.035 362.338 302.488C359.437 296.856 357.986 290.499 357.986 283.416ZM415.714 283.672C415.714 278.808 414.69 274.584 412.642 271C410.679 267.416 408.077 264.685 404.834 262.808C401.591 260.931 398.093 259.992 394.338 259.992C390.583 259.992 387.085 260.931 383.842 262.808C380.599 264.6 377.954 267.288 375.906 270.872C373.943 274.371 372.962 278.552 372.962 283.416C372.962 288.28 373.943 292.547 375.906 296.216C377.954 299.885 380.599 302.701 383.842 304.664C387.17 306.541 390.669 307.48 394.338 307.48C398.093 307.48 401.591 306.541 404.834 304.664C408.077 302.787 410.679 300.056 412.642 296.472C414.69 292.803 415.714 288.536 415.714 283.672ZM444.736 283.416C444.736 276.333 446.187 270.061 449.088 264.6C452.075 259.139 456.085 254.915 461.12 251.928C466.24 248.856 471.872 247.32 478.016 247.32C483.563 247.32 488.384 248.429 492.48 250.648C496.661 252.781 499.989 255.469 502.464 258.712V248.472H517.184V319H502.464V308.504C499.989 311.832 496.619 314.605 492.352 316.824C488.085 319.043 483.221 320.152 477.76 320.152C471.701 320.152 466.155 318.616 461.12 315.544C456.085 312.387 452.075 308.035 449.088 302.488C446.187 296.856 444.736 290.499 444.736 283.416ZM502.464 283.672C502.464 278.808 501.44 274.584 499.392 271C497.429 267.416 494.827 264.685 491.584 262.808C488.341 260.931 484.843 259.992 481.088 259.992C477.333 259.992 473.835 260.931 470.592 262.808C467.349 264.6 464.704 267.288 462.656 270.872C460.693 274.371 459.712 278.552 459.712 283.416C459.712 288.28 460.693 292.547 462.656 296.216C464.704 299.885 467.349 302.701 470.592 304.664C473.92 306.541 477.419 307.48 481.088 307.48C484.843 307.48 488.341 306.541 491.584 304.664C494.827 302.787 497.429 300.056 499.392 296.472C501.44 292.803 502.464 288.536 502.464 283.672ZM531.486 283.416C531.486 276.333 532.937 270.061 535.838 264.6C538.825 259.139 542.835 254.915 547.87 251.928C552.99 248.856 558.622 247.32 564.766 247.32C570.313 247.32 575.134 248.429 579.23 250.648C583.411 252.781 586.739 255.469 589.214 258.712V248.472H603.934V319H589.214V308.504C586.739 311.832 583.369 314.605 579.102 316.824C574.835 319.043 569.971 320.152 564.51 320.152C558.451 320.152 552.905 318.616 547.87 315.544C542.835 312.387 538.825 308.035 535.838 302.488C532.937 296.856 531.486 290.499 531.486 283.416ZM589.214 283.672C589.214 278.808 588.19 274.584 586.142 271C584.179 267.416 581.577 264.685 578.334 262.808C575.091 260.931 571.593 259.992 567.838 259.992C564.083 259.992 560.585 260.931 557.342 262.808C554.099 264.6 551.454 267.288 549.406 270.872C547.443 274.371 546.462 278.552 546.462 283.416C546.462 288.28 547.443 292.547 549.406 296.216C551.454 299.885 554.099 302.701 557.342 304.664C560.67 306.541 564.169 307.48 567.838 307.48C571.593 307.48 575.091 306.541 578.334 304.664C581.577 302.787 584.179 300.056 586.142 296.472C588.19 292.803 589.214 288.536 589.214 283.672Z" fill="#272518"/>
<path d="M298.04 333.576C297.96 333.712 297.876 333.812 297.788 333.876C297.7 333.94 297.588 333.972 297.452 333.972C297.308 333.972 297.144 333.908 296.96 333.78C296.776 333.644 296.544 333.496 296.264 333.336C295.992 333.168 295.664 333.02 295.28 332.892C294.896 332.756 294.436 332.688 293.9 332.688C293.396 332.688 292.952 332.756 292.568 332.892C292.192 333.02 291.876 333.2 291.62 333.432C291.364 333.656 291.168 333.924 291.032 334.236C290.904 334.54 290.84 334.872 290.84 335.232C290.84 335.696 290.956 336.08 291.188 336.384C291.428 336.688 291.74 336.948 292.124 337.164C292.508 337.38 292.944 337.568 293.432 337.728C293.92 337.888 294.42 338.056 294.932 338.232C295.444 338.4 295.944 338.596 296.432 338.82C296.92 339.044 297.356 339.328 297.74 339.672C298.124 340.008 298.432 340.424 298.664 340.92C298.904 341.408 299.024 342.008 299.024 342.72C299.024 343.48 298.892 344.192 298.628 344.856C298.372 345.52 297.996 346.1 297.5 346.596C297.004 347.092 296.392 347.484 295.664 347.772C294.944 348.052 294.124 348.192 293.204 348.192C292.652 348.192 292.116 348.136 291.596 348.024C291.076 347.92 290.584 347.772 290.12 347.58C289.656 347.38 289.22 347.144 288.812 346.872C288.412 346.592 288.052 346.28 287.732 345.936L288.464 344.712C288.536 344.616 288.62 344.536 288.716 344.472C288.82 344.408 288.936 344.376 289.064 344.376C289.232 344.376 289.424 344.464 289.64 344.64C289.864 344.816 290.136 345.012 290.456 345.228C290.784 345.436 291.172 345.628 291.62 345.804C292.076 345.98 292.628 346.068 293.276 346.068C293.804 346.068 294.276 346 294.692 345.864C295.108 345.72 295.456 345.52 295.736 345.264C296.024 345 296.244 344.684 296.396 344.316C296.548 343.948 296.624 343.54 296.624 343.092C296.624 342.588 296.508 342.176 296.276 341.856C296.044 341.536 295.736 341.268 295.352 341.052C294.968 340.836 294.532 340.652 294.044 340.5C293.556 340.348 293.056 340.192 292.544 340.032C292.032 339.864 291.532 339.672 291.044 339.456C290.556 339.24 290.12 338.96 289.736 338.616C289.352 338.264 289.044 337.828 288.812 337.308C288.58 336.78 288.464 336.132 288.464 335.364C288.464 334.748 288.584 334.152 288.824 333.576C289.064 333 289.412 332.492 289.868 332.052C290.332 331.604 290.9 331.248 291.572 330.984C292.244 330.712 293.012 330.576 293.876 330.576C294.844 330.576 295.732 330.732 296.54 331.044C297.356 331.348 298.064 331.788 298.664 332.364L298.04 333.576ZM303.828 337.356C304.34 336.836 304.904 336.416 305.52 336.096C306.144 335.776 306.86 335.616 307.668 335.616C308.34 335.616 308.928 335.728 309.432 335.952C309.944 336.176 310.372 336.492 310.716 336.9C311.06 337.3 311.32 337.784 311.496 338.352C311.672 338.92 311.76 339.548 311.76 340.236V348H309.408V340.236C309.408 339.364 309.208 338.688 308.808 338.208C308.408 337.72 307.796 337.476 306.972 337.476C306.372 337.476 305.808 337.62 305.28 337.908C304.76 338.188 304.276 338.572 303.828 339.06V348H301.488V330.288H303.828V337.356ZM320.113 335.616C321.009 335.616 321.817 335.764 322.537 336.06C323.265 336.348 323.881 336.768 324.385 337.32C324.897 337.864 325.289 338.524 325.561 339.3C325.833 340.068 325.969 340.932 325.969 341.892C325.969 342.852 325.833 343.72 325.561 344.496C325.289 345.272 324.897 345.932 324.385 346.476C323.881 347.02 323.265 347.44 322.537 347.736C321.817 348.024 321.009 348.168 320.113 348.168C319.209 348.168 318.393 348.024 317.665 347.736C316.945 347.44 316.329 347.02 315.817 346.476C315.305 345.932 314.909 345.272 314.629 344.496C314.357 343.72 314.221 342.852 314.221 341.892C314.221 340.932 314.357 340.068 314.629 339.3C314.909 338.524 315.305 337.864 315.817 337.32C316.329 336.768 316.945 336.348 317.665 336.06C318.393 335.764 319.209 335.616 320.113 335.616ZM320.113 346.344C321.265 346.344 322.125 345.956 322.693 345.18C323.261 344.404 323.545 343.312 323.545 341.904C323.545 340.496 323.261 339.404 322.693 338.628C322.125 337.844 321.265 337.452 320.113 337.452C318.945 337.452 318.073 337.844 317.497 338.628C316.929 339.404 316.645 340.496 316.645 341.904C316.645 343.312 316.929 344.404 317.497 345.18C318.073 345.956 318.945 346.344 320.113 346.344ZM330.922 345C331.306 345.504 331.718 345.856 332.158 346.056C332.606 346.256 333.106 346.356 333.658 346.356C334.73 346.356 335.558 345.972 336.142 345.204C336.734 344.428 337.03 343.3 337.03 341.82C337.03 341.044 336.962 340.384 336.826 339.84C336.698 339.288 336.506 338.84 336.25 338.496C336.002 338.144 335.694 337.888 335.326 337.728C334.958 337.56 334.542 337.476 334.078 337.476C333.398 337.476 332.806 337.628 332.302 337.932C331.806 338.236 331.346 338.668 330.922 339.228V345ZM330.802 337.632C331.058 337.328 331.33 337.052 331.618 336.804C331.914 336.548 332.23 336.332 332.566 336.156C332.902 335.972 333.258 335.832 333.634 335.736C334.018 335.632 334.426 335.58 334.858 335.58C335.554 335.58 336.182 335.716 336.742 335.988C337.31 336.26 337.794 336.66 338.194 337.188C338.594 337.716 338.902 338.368 339.118 339.144C339.342 339.92 339.454 340.812 339.454 341.82C339.454 342.724 339.33 343.564 339.082 344.34C338.842 345.108 338.494 345.776 338.038 346.344C337.59 346.912 337.038 347.36 336.382 347.688C335.734 348.008 335.002 348.168 334.186 348.168C333.458 348.168 332.834 348.048 332.314 347.808C331.794 347.568 331.33 347.232 330.922 346.8V352.092H328.582V335.808H329.986C330.314 335.808 330.518 335.964 330.598 336.276L330.802 337.632ZM357.548 333.576C357.468 333.712 357.384 333.812 357.296 333.876C357.208 333.94 357.096 333.972 356.96 333.972C356.816 333.972 356.652 333.908 356.468 333.78C356.284 333.644 356.052 333.496 355.772 333.336C355.5 333.168 355.172 333.02 354.788 332.892C354.404 332.756 353.944 332.688 353.408 332.688C352.904 332.688 352.46 332.756 352.076 332.892C351.7 333.02 351.384 333.2 351.128 333.432C350.872 333.656 350.676 333.924 350.54 334.236C350.412 334.54 350.348 334.872 350.348 335.232C350.348 335.696 350.464 336.08 350.696 336.384C350.936 336.688 351.248 336.948 351.632 337.164C352.016 337.38 352.452 337.568 352.94 337.728C353.428 337.888 353.928 338.056 354.44 338.232C354.952 338.4 355.452 338.596 355.94 338.82C356.428 339.044 356.864 339.328 357.248 339.672C357.632 340.008 357.94 340.424 358.172 340.92C358.412 341.408 358.532 342.008 358.532 342.72C358.532 343.48 358.4 344.192 358.136 344.856C357.88 345.52 357.504 346.1 357.008 346.596C356.512 347.092 355.9 347.484 355.172 347.772C354.452 348.052 353.632 348.192 352.712 348.192C352.16 348.192 351.624 348.136 351.104 348.024C350.584 347.92 350.092 347.772 349.628 347.58C349.164 347.38 348.728 347.144 348.32 346.872C347.92 346.592 347.56 346.28 347.24 345.936L347.972 344.712C348.044 344.616 348.128 344.536 348.224 344.472C348.328 344.408 348.444 344.376 348.572 344.376C348.74 344.376 348.932 344.464 349.148 344.64C349.372 344.816 349.644 345.012 349.964 345.228C350.292 345.436 350.68 345.628 351.128 345.804C351.584 345.98 352.136 346.068 352.784 346.068C353.312 346.068 353.784 346 354.2 345.864C354.616 345.72 354.964 345.52 355.244 345.264C355.532 345 355.752 344.684 355.904 344.316C356.056 343.948 356.132 343.54 356.132 343.092C356.132 342.588 356.016 342.176 355.784 341.856C355.552 341.536 355.244 341.268 354.86 341.052C354.476 340.836 354.04 340.652 353.552 340.5C353.064 340.348 352.564 340.192 352.052 340.032C351.54 339.864 351.04 339.672 350.552 339.456C350.064 339.24 349.628 338.96 349.244 338.616C348.86 338.264 348.552 337.828 348.32 337.308C348.088 336.78 347.972 336.132 347.972 335.364C347.972 334.748 348.092 334.152 348.332 333.576C348.572 333 348.92 332.492 349.376 332.052C349.84 331.604 350.408 331.248 351.08 330.984C351.752 330.712 352.52 330.576 353.384 330.576C354.352 330.576 355.24 330.732 356.048 331.044C356.864 331.348 357.572 331.788 358.172 332.364L357.548 333.576ZM360.949 348V335.808H362.353C362.681 335.808 362.885 335.964 362.965 336.276L363.133 337.44C363.581 336.904 364.077 336.468 364.621 336.132C365.173 335.788 365.817 335.616 366.553 335.616C367.361 335.616 368.017 335.84 368.521 336.288C369.025 336.728 369.393 337.328 369.625 338.088C369.801 337.656 370.029 337.284 370.309 336.972C370.589 336.66 370.901 336.404 371.245 336.204C371.589 336.004 371.953 335.856 372.337 335.76C372.729 335.664 373.125 335.616 373.525 335.616C374.173 335.616 374.749 335.72 375.253 335.928C375.765 336.128 376.197 336.424 376.549 336.816C376.901 337.208 377.169 337.692 377.353 338.268C377.537 338.844 377.629 339.5 377.629 340.236V348H375.277V340.236C375.277 339.324 375.077 338.636 374.677 338.172C374.285 337.708 373.709 337.476 372.949 337.476C372.613 337.476 372.293 337.536 371.989 337.656C371.685 337.768 371.417 337.94 371.185 338.172C370.961 338.404 370.781 338.692 370.645 339.036C370.517 339.38 370.453 339.78 370.453 340.236V348H368.101V340.236C368.101 339.292 367.913 338.596 367.537 338.148C367.161 337.7 366.609 337.476 365.881 337.476C365.377 337.476 364.909 337.608 364.477 337.872C364.045 338.136 363.649 338.496 363.289 338.952V348H360.949ZM387.329 342.588C386.377 342.62 385.569 342.696 384.905 342.816C384.241 342.928 383.701 343.08 383.285 343.272C382.869 343.464 382.569 343.692 382.385 343.956C382.201 344.212 382.109 344.5 382.109 344.82C382.109 345.124 382.157 345.388 382.253 345.612C382.357 345.828 382.493 346.008 382.661 346.152C382.837 346.288 383.041 346.388 383.273 346.452C383.505 346.516 383.757 346.548 384.029 346.548C384.389 346.548 384.717 346.512 385.013 346.44C385.317 346.368 385.601 346.268 385.865 346.14C386.129 346.004 386.381 345.84 386.621 345.648C386.861 345.456 387.097 345.236 387.329 344.988V342.588ZM380.465 337.512C381.145 336.864 381.881 336.38 382.673 336.06C383.473 335.74 384.349 335.58 385.301 335.58C385.997 335.58 386.613 335.696 387.149 335.928C387.685 336.152 388.137 336.468 388.505 336.876C388.873 337.284 389.149 337.772 389.333 338.34C389.525 338.908 389.621 339.536 389.621 340.224V348H388.577C388.345 348 388.169 347.964 388.049 347.892C387.929 347.812 387.833 347.668 387.761 347.46L387.509 346.392C387.197 346.68 386.889 346.936 386.585 347.16C386.281 347.376 385.961 347.564 385.625 347.724C385.297 347.876 384.945 347.992 384.569 348.072C384.193 348.152 383.777 348.192 383.321 348.192C382.841 348.192 382.389 348.128 381.965 348C381.549 347.864 381.185 347.66 380.873 347.388C380.561 347.116 380.313 346.776 380.129 346.368C379.953 345.96 379.865 345.484 379.865 344.94C379.865 344.46 379.993 344 380.249 343.56C380.513 343.112 380.937 342.712 381.521 342.36C382.113 342.008 382.881 341.72 383.825 341.496C384.777 341.272 385.945 341.144 387.329 341.112V340.224C387.329 339.304 387.133 338.616 386.741 338.16C386.349 337.704 385.773 337.476 385.013 337.476C384.501 337.476 384.069 337.54 383.717 337.668C383.373 337.796 383.073 337.94 382.817 338.1C382.569 338.252 382.349 338.392 382.157 338.52C381.973 338.648 381.781 338.712 381.581 338.712C381.421 338.712 381.281 338.668 381.161 338.58C381.049 338.492 380.957 338.388 380.885 338.268L380.465 337.512ZM394.961 338.148C395.353 337.348 395.825 336.72 396.377 336.264C396.929 335.808 397.593 335.58 398.369 335.58C398.633 335.58 398.881 335.612 399.113 335.676C399.353 335.732 399.561 335.82 399.737 335.94L399.581 337.704C399.525 337.92 399.393 338.028 399.185 338.028C399.073 338.028 398.905 338.008 398.681 337.968C398.457 337.92 398.217 337.896 397.961 337.896C397.585 337.896 397.253 337.952 396.965 338.064C396.677 338.168 396.417 338.328 396.185 338.544C395.961 338.752 395.761 339.012 395.585 339.324C395.409 339.628 395.245 339.976 395.093 340.368V348H392.753V335.808H394.097C394.353 335.808 394.525 335.856 394.613 335.952C394.709 336.04 394.777 336.2 394.817 336.432L394.961 338.148ZM405.358 348.192C404.374 348.192 403.614 347.916 403.078 347.364C402.55 346.812 402.286 346.024 402.286 345V337.704H400.87C400.734 337.704 400.618 337.664 400.522 337.584C400.434 337.496 400.39 337.368 400.39 337.2V336.252L402.37 335.976L402.898 332.34C402.93 332.204 402.99 332.1 403.078 332.028C403.174 331.948 403.294 331.908 403.438 331.908H404.626V336H408.082V337.704H404.626V344.844C404.626 345.324 404.742 345.684 404.974 345.924C405.214 346.156 405.518 346.272 405.886 346.272C406.102 346.272 406.286 346.244 406.438 346.188C406.598 346.132 406.734 346.072 406.846 346.008C406.958 345.936 407.054 345.872 407.134 345.816C407.214 345.76 407.286 345.732 407.35 345.732C407.43 345.732 407.49 345.752 407.53 345.792C407.578 345.824 407.626 345.88 407.674 345.96L408.37 347.088C407.986 347.44 407.53 347.712 407.002 347.904C406.474 348.096 405.926 348.192 405.358 348.192ZM418.243 340.548C418.243 340.084 418.175 339.656 418.039 339.264C417.911 338.872 417.719 338.532 417.463 338.244C417.207 337.956 416.895 337.732 416.527 337.572C416.159 337.412 415.735 337.332 415.255 337.332C414.271 337.332 413.495 337.616 412.927 338.184C412.367 338.752 412.011 339.54 411.859 340.548H418.243ZM420.175 346.26C419.887 346.596 419.555 346.888 419.179 347.136C418.803 347.376 418.403 347.572 417.979 347.724C417.555 347.876 417.115 347.988 416.659 348.06C416.211 348.132 415.767 348.168 415.327 348.168C414.487 348.168 413.707 348.028 412.987 347.748C412.275 347.46 411.655 347.044 411.127 346.5C410.607 345.948 410.199 345.268 409.903 344.46C409.615 343.644 409.471 342.708 409.471 341.652C409.471 340.804 409.603 340.016 409.867 339.288C410.131 338.552 410.507 337.912 410.995 337.368C411.491 336.824 412.095 336.396 412.807 336.084C413.519 335.772 414.319 335.616 415.207 335.616C415.951 335.616 416.635 335.74 417.259 335.988C417.891 336.228 418.435 336.58 418.891 337.044C419.347 337.508 419.703 338.08 419.959 338.76C420.223 339.44 420.355 340.216 420.355 341.088C420.355 341.448 420.315 341.692 420.235 341.82C420.155 341.94 420.007 342 419.791 342H411.799C411.823 342.728 411.927 343.364 412.111 343.908C412.295 344.444 412.547 344.892 412.867 345.252C413.195 345.612 413.583 345.88 414.031 346.056C414.479 346.232 414.979 346.32 415.531 346.32C416.051 346.32 416.499 346.26 416.875 346.14C417.259 346.02 417.587 345.892 417.859 345.756C418.139 345.612 418.371 345.48 418.555 345.36C418.747 345.24 418.915 345.18 419.059 345.18C419.251 345.18 419.399 345.252 419.503 345.396L420.175 346.26ZM425.079 338.148C425.471 337.348 425.943 336.72 426.495 336.264C427.047 335.808 427.711 335.58 428.487 335.58C428.751 335.58 428.999 335.612 429.231 335.676C429.471 335.732 429.679 335.82 429.855 335.94L429.699 337.704C429.643 337.92 429.511 338.028 429.303 338.028C429.191 338.028 429.023 338.008 428.799 337.968C428.575 337.92 428.335 337.896 428.079 337.896C427.703 337.896 427.371 337.952 427.083 338.064C426.795 338.168 426.535 338.328 426.303 338.544C426.079 338.752 425.879 339.012 425.703 339.324C425.527 339.628 425.363 339.976 425.211 340.368V348H422.871V335.808H424.215C424.471 335.808 424.643 335.856 424.731 335.952C424.827 336.04 424.895 336.2 424.935 336.432L425.079 338.148ZM430.338 346.596C430.338 346.38 430.378 346.176 430.458 345.984C430.538 345.792 430.646 345.624 430.782 345.48C430.926 345.336 431.094 345.224 431.286 345.144C431.478 345.056 431.686 345.012 431.91 345.012C432.126 345.012 432.33 345.056 432.522 345.144C432.714 345.224 432.882 345.336 433.026 345.48C433.17 345.624 433.282 345.792 433.362 345.984C433.45 346.176 433.494 346.38 433.494 346.596C433.494 346.82 433.45 347.028 433.362 347.22C433.282 347.412 433.17 347.58 433.026 347.724C432.882 347.868 432.714 347.98 432.522 348.06C432.33 348.14 432.126 348.18 431.91 348.18C431.686 348.18 431.478 348.14 431.286 348.06C431.094 347.98 430.926 347.868 430.782 347.724C430.646 347.58 430.538 347.412 430.458 347.22C430.378 347.028 430.338 346.82 430.338 346.596ZM451.86 333.576C451.78 333.712 451.696 333.812 451.608 333.876C451.52 333.94 451.408 333.972 451.272 333.972C451.128 333.972 450.964 333.908 450.78 333.78C450.596 333.644 450.364 333.496 450.084 333.336C449.812 333.168 449.484 333.02 449.1 332.892C448.716 332.756 448.256 332.688 447.72 332.688C447.216 332.688 446.772 332.756 446.388 332.892C446.012 333.02 445.696 333.2 445.44 333.432C445.184 333.656 444.988 333.924 444.852 334.236C444.724 334.54 444.66 334.872 444.66 335.232C444.66 335.696 444.776 336.08 445.008 336.384C445.248 336.688 445.56 336.948 445.944 337.164C446.328 337.38 446.764 337.568 447.252 337.728C447.74 337.888 448.24 338.056 448.752 338.232C449.264 338.4 449.764 338.596 450.252 338.82C450.74 339.044 451.176 339.328 451.56 339.672C451.944 340.008 452.252 340.424 452.484 340.92C452.724 341.408 452.844 342.008 452.844 342.72C452.844 343.48 452.712 344.192 452.448 344.856C452.192 345.52 451.816 346.1 451.32 346.596C450.824 347.092 450.212 347.484 449.484 347.772C448.764 348.052 447.944 348.192 447.024 348.192C446.472 348.192 445.936 348.136 445.416 348.024C444.896 347.92 444.404 347.772 443.94 347.58C443.476 347.38 443.04 347.144 442.632 346.872C442.232 346.592 441.872 346.28 441.552 345.936L442.284 344.712C442.356 344.616 442.44 344.536 442.536 344.472C442.64 344.408 442.756 344.376 442.884 344.376C443.052 344.376 443.244 344.464 443.46 344.64C443.684 344.816 443.956 345.012 444.276 345.228C444.604 345.436 444.992 345.628 445.44 345.804C445.896 345.98 446.448 346.068 447.096 346.068C447.624 346.068 448.096 346 448.512 345.864C448.928 345.72 449.276 345.52 449.556 345.264C449.844 345 450.064 344.684 450.216 344.316C450.368 343.948 450.444 343.54 450.444 343.092C450.444 342.588 450.328 342.176 450.096 341.856C449.864 341.536 449.556 341.268 449.172 341.052C448.788 340.836 448.352 340.652 447.864 340.5C447.376 340.348 446.876 340.192 446.364 340.032C445.852 339.864 445.352 339.672 444.864 339.456C444.376 339.24 443.94 338.96 443.556 338.616C443.172 338.264 442.864 337.828 442.632 337.308C442.4 336.78 442.284 336.132 442.284 335.364C442.284 334.748 442.404 334.152 442.644 333.576C442.884 333 443.232 332.492 443.688 332.052C444.152 331.604 444.72 331.248 445.392 330.984C446.064 330.712 446.832 330.576 447.696 330.576C448.664 330.576 449.552 330.732 450.36 331.044C451.176 331.348 451.884 331.788 452.484 332.364L451.86 333.576ZM457.648 337.356C458.16 336.836 458.724 336.416 459.34 336.096C459.964 335.776 460.68 335.616 461.488 335.616C462.16 335.616 462.748 335.728 463.252 335.952C463.764 336.176 464.192 336.492 464.536 336.9C464.88 337.3 465.14 337.784 465.316 338.352C465.492 338.92 465.58 339.548 465.58 340.236V348H463.228V340.236C463.228 339.364 463.028 338.688 462.628 338.208C462.228 337.72 461.616 337.476 460.792 337.476C460.192 337.476 459.628 337.62 459.1 337.908C458.58 338.188 458.096 338.572 457.648 339.06V348H455.308V330.288H457.648V337.356ZM473.934 335.616C474.83 335.616 475.638 335.764 476.358 336.06C477.086 336.348 477.702 336.768 478.206 337.32C478.718 337.864 479.11 338.524 479.382 339.3C479.654 340.068 479.79 340.932 479.79 341.892C479.79 342.852 479.654 343.72 479.382 344.496C479.11 345.272 478.718 345.932 478.206 346.476C477.702 347.02 477.086 347.44 476.358 347.736C475.638 348.024 474.83 348.168 473.934 348.168C473.03 348.168 472.214 348.024 471.486 347.736C470.766 347.44 470.15 347.02 469.638 346.476C469.126 345.932 468.73 345.272 468.45 344.496C468.178 343.72 468.042 342.852 468.042 341.892C468.042 340.932 468.178 340.068 468.45 339.3C468.73 338.524 469.126 337.864 469.638 337.32C470.15 336.768 470.766 336.348 471.486 336.06C472.214 335.764 473.03 335.616 473.934 335.616ZM473.934 346.344C475.086 346.344 475.946 345.956 476.514 345.18C477.082 344.404 477.366 343.312 477.366 341.904C477.366 340.496 477.082 339.404 476.514 338.628C475.946 337.844 475.086 337.452 473.934 337.452C472.766 337.452 471.894 337.844 471.318 338.628C470.75 339.404 470.466 340.496 470.466 341.904C470.466 343.312 470.75 344.404 471.318 345.18C471.894 345.956 472.766 346.344 473.934 346.344ZM484.742 345C485.126 345.504 485.538 345.856 485.978 346.056C486.426 346.256 486.926 346.356 487.478 346.356C488.55 346.356 489.378 345.972 489.962 345.204C490.554 344.428 490.85 343.3 490.85 341.82C490.85 341.044 490.782 340.384 490.646 339.84C490.518 339.288 490.326 338.84 490.07 338.496C489.822 338.144 489.514 337.888 489.146 337.728C488.778 337.56 488.362 337.476 487.898 337.476C487.218 337.476 486.626 337.628 486.122 337.932C485.626 338.236 485.166 338.668 484.742 339.228V345ZM484.622 337.632C484.878 337.328 485.15 337.052 485.438 336.804C485.734 336.548 486.05 336.332 486.386 336.156C486.722 335.972 487.078 335.832 487.454 335.736C487.838 335.632 488.246 335.58 488.678 335.58C489.374 335.58 490.002 335.716 490.562 335.988C491.13 336.26 491.614 336.66 492.014 337.188C492.414 337.716 492.722 338.368 492.938 339.144C493.162 339.92 493.274 340.812 493.274 341.82C493.274 342.724 493.15 343.564 492.902 344.34C492.662 345.108 492.314 345.776 491.858 346.344C491.41 346.912 490.858 347.36 490.202 347.688C489.554 348.008 488.822 348.168 488.006 348.168C487.278 348.168 486.654 348.048 486.134 347.808C485.614 347.568 485.15 347.232 484.742 346.8V352.092H482.402V335.808H483.806C484.134 335.808 484.338 335.964 484.418 336.276L484.622 337.632ZM510.811 341.58L508.255 334.896C508.071 334.44 507.887 333.864 507.703 333.168C507.615 333.512 507.523 333.832 507.427 334.128C507.339 334.424 507.251 334.688 507.163 334.92L504.619 341.58H510.811ZM515.863 348H513.895C513.671 348 513.487 347.944 513.343 347.832C513.199 347.72 513.095 347.576 513.031 347.4L511.507 343.404H503.911L502.387 347.4C502.331 347.552 502.227 347.692 502.075 347.82C501.923 347.94 501.739 348 501.523 348H499.555L506.419 330.768H508.999L515.863 348ZM519.684 337.5C519.948 337.22 520.224 336.964 520.512 336.732C520.8 336.5 521.104 336.304 521.424 336.144C521.752 335.976 522.1 335.848 522.468 335.76C522.844 335.664 523.244 335.616 523.668 335.616C524.34 335.616 524.928 335.728 525.432 335.952C525.944 336.176 526.372 336.492 526.716 336.9C527.06 337.3 527.32 337.784 527.496 338.352C527.672 338.92 527.76 339.548 527.76 340.236V348H525.408V340.236C525.408 339.364 525.208 338.688 524.808 338.208C524.408 337.72 523.796 337.476 522.972 337.476C522.372 337.476 521.808 337.62 521.28 337.908C520.76 338.188 520.276 338.572 519.828 339.06V348H517.488V335.808H518.892C519.22 335.808 519.424 335.964 519.504 336.276L519.684 337.5ZM541.269 335.808L534.501 351.54C534.429 351.716 534.333 351.852 534.213 351.948C534.093 352.044 533.917 352.092 533.685 352.092H531.945L534.177 347.232L529.173 335.808H531.213C531.413 335.808 531.569 335.856 531.681 335.952C531.793 336.048 531.873 336.156 531.921 336.276L535.017 343.596C535.081 343.78 535.141 343.968 535.197 344.16C535.261 344.344 535.313 344.528 535.353 344.712C535.409 344.52 535.469 344.332 535.533 344.148C535.597 343.956 535.665 343.768 535.737 343.584L538.725 336.276C538.781 336.14 538.869 336.028 538.989 335.94C539.109 335.852 539.245 335.808 539.397 335.808H541.269ZM560.014 335.808L556.09 348H554.218C553.994 348 553.842 347.852 553.762 347.556L551.194 339.612C551.13 339.412 551.074 339.216 551.026 339.024C550.978 338.824 550.934 338.624 550.894 338.424C550.822 338.84 550.722 339.244 550.594 339.636L547.99 347.556C547.91 347.852 547.738 348 547.474 348H545.698L541.762 335.808H543.61C543.794 335.808 543.946 335.852 544.066 335.94C544.194 336.028 544.278 336.14 544.318 336.276L546.514 343.764C546.586 344.068 546.65 344.364 546.706 344.652C546.762 344.94 546.814 345.228 546.862 345.516C546.934 345.228 547.01 344.94 547.09 344.652C547.178 344.364 547.266 344.068 547.354 343.764L549.79 336.228C549.83 336.092 549.906 335.984 550.018 335.904C550.13 335.816 550.266 335.772 550.426 335.772H551.446C551.622 335.772 551.766 335.816 551.878 335.904C551.998 335.984 552.078 336.092 552.118 336.228L554.494 343.764C554.582 344.068 554.666 344.368 554.746 344.664C554.826 344.952 554.898 345.244 554.962 345.54C555.01 345.252 555.066 344.964 555.13 344.676C555.194 344.38 555.266 344.076 555.346 343.764L557.578 336.276C557.618 336.14 557.698 336.028 557.818 335.94C557.946 335.852 558.09 335.808 558.25 335.808H560.014ZM564.336 337.356C564.848 336.836 565.412 336.416 566.028 336.096C566.652 335.776 567.368 335.616 568.176 335.616C568.848 335.616 569.436 335.728 569.94 335.952C570.452 336.176 570.88 336.492 571.224 336.9C571.568 337.3 571.828 337.784 572.004 338.352C572.18 338.92 572.268 339.548 572.268 340.236V348H569.916V340.236C569.916 339.364 569.716 338.688 569.316 338.208C568.916 337.72 568.304 337.476 567.48 337.476C566.88 337.476 566.316 337.62 565.788 337.908C565.268 338.188 564.784 338.572 564.336 339.06V348H561.996V330.288H564.336V337.356ZM583.501 340.548C583.501 340.084 583.433 339.656 583.297 339.264C583.169 338.872 582.977 338.532 582.721 338.244C582.465 337.956 582.153 337.732 581.785 337.572C581.417 337.412 580.993 337.332 580.513 337.332C579.529 337.332 578.753 337.616 578.185 338.184C577.625 338.752 577.269 339.54 577.117 340.548H583.501ZM585.433 346.26C585.145 346.596 584.813 346.888 584.437 347.136C584.061 347.376 583.661 347.572 583.237 347.724C582.813 347.876 582.373 347.988 581.917 348.06C581.469 348.132 581.025 348.168 580.585 348.168C579.745 348.168 578.965 348.028 578.245 347.748C577.533 347.46 576.913 347.044 576.385 346.5C575.865 345.948 575.457 345.268 575.161 344.46C574.873 343.644 574.729 342.708 574.729 341.652C574.729 340.804 574.861 340.016 575.125 339.288C575.389 338.552 575.765 337.912 576.253 337.368C576.749 336.824 577.353 336.396 578.065 336.084C578.777 335.772 579.577 335.616 580.465 335.616C581.209 335.616 581.893 335.74 582.517 335.988C583.149 336.228 583.693 336.58 584.149 337.044C584.605 337.508 584.961 338.08 585.217 338.76C585.481 339.44 585.613 340.216 585.613 341.088C585.613 341.448 585.573 341.692 585.493 341.82C585.413 341.94 585.265 342 585.049 342H577.057C577.081 342.728 577.185 343.364 577.369 343.908C577.553 344.444 577.805 344.892 578.125 345.252C578.453 345.612 578.841 345.88 579.289 346.056C579.737 346.232 580.237 346.32 580.789 346.32C581.309 346.32 581.757 346.26 582.133 346.14C582.517 346.02 582.845 345.892 583.117 345.756C583.397 345.612 583.629 345.48 583.813 345.36C584.005 345.24 584.173 345.18 584.317 345.18C584.509 345.18 584.657 345.252 584.761 345.396L585.433 346.26ZM590.336 338.148C590.728 337.348 591.2 336.72 591.752 336.264C592.304 335.808 592.968 335.58 593.744 335.58C594.008 335.58 594.256 335.612 594.488 335.676C594.728 335.732 594.936 335.82 595.112 335.94L594.956 337.704C594.9 337.92 594.768 338.028 594.56 338.028C594.448 338.028 594.28 338.008 594.056 337.968C593.832 337.92 593.592 337.896 593.336 337.896C592.96 337.896 592.628 337.952 592.34 338.064C592.052 338.168 591.792 338.328 591.56 338.544C591.336 338.752 591.136 339.012 590.96 339.324C590.784 339.628 590.62 339.976 590.468 340.368V348H588.128V335.808H589.472C589.728 335.808 589.9 335.856 589.988 335.952C590.084 336.04 590.152 336.2 590.192 336.432L590.336 338.148ZM604.548 340.548C604.548 340.084 604.48 339.656 604.344 339.264C604.216 338.872 604.024 338.532 603.768 338.244C603.512 337.956 603.2 337.732 602.832 337.572C602.464 337.412 602.04 337.332 601.56 337.332C600.576 337.332 599.8 337.616 599.232 338.184C598.672 338.752 598.316 339.54 598.164 340.548H604.548ZM606.48 346.26C606.192 346.596 605.86 346.888 605.484 347.136C605.108 347.376 604.708 347.572 604.284 347.724C603.86 347.876 603.42 347.988 602.964 348.06C602.516 348.132 602.072 348.168 601.632 348.168C600.792 348.168 600.012 348.028 599.292 347.748C598.58 347.46 597.96 347.044 597.432 346.5C596.912 345.948 596.504 345.268 596.208 344.46C595.92 343.644 595.776 342.708 595.776 341.652C595.776 340.804 595.908 340.016 596.172 339.288C596.436 338.552 596.812 337.912 597.3 337.368C597.796 336.824 598.4 336.396 599.112 336.084C599.824 335.772 600.624 335.616 601.512 335.616C602.256 335.616 602.94 335.74 603.564 335.988C604.196 336.228 604.74 336.58 605.196 337.044C605.652 337.508 606.008 338.08 606.264 338.76C606.528 339.44 606.66 340.216 606.66 341.088C606.66 341.448 606.62 341.692 606.54 341.82C606.46 341.94 606.312 342 606.096 342H598.104C598.128 342.728 598.232 343.364 598.416 343.908C598.6 344.444 598.852 344.892 599.172 345.252C599.5 345.612 599.888 345.88 600.336 346.056C600.784 346.232 601.284 346.32 601.836 346.32C602.356 346.32 602.804 346.26 603.18 346.14C603.564 346.02 603.892 345.892 604.164 345.756C604.444 345.612 604.676 345.48 604.86 345.36C605.052 345.24 605.22 345.18 605.364 345.18C605.556 345.18 605.704 345.252 605.808 345.396L606.48 346.26Z" fill="#D49F89"/>
<path d="M172 348C172 348 235.122 285.92 219.52 242.42C203.061 196.527 140.939 196.527 124.48 242.42C108.878 285.92 172 348 172 348Z" fill="#D49F89"/>
<path d="M184.834 241.5C186.292 241.5 187.691 242.079 188.723 243.111C189.754 244.142 190.334 245.541 190.334 247V265.333C190.334 266.792 189.754 268.191 188.723 269.222C187.691 270.254 186.292 270.833 184.834 270.833H178.056L173.271 274.023C172.501 274.537 171.5 274.537 170.73 274.023L165.945 270.833H159.167C157.708 270.833 156.309 270.254 155.278 269.222C154.246 268.191 153.667 266.792 153.667 265.333V247C153.667 245.541 154.246 244.142 155.278 243.111C156.309 242.079 157.708 241.5 159.167 241.5H184.834ZM165.584 254.333C164.854 254.333 164.155 254.623 163.639 255.139C163.123 255.655 162.834 256.354 162.834 257.083C162.834 257.813 163.123 258.512 163.639 259.028C164.155 259.544 164.854 259.833 165.584 259.833C166.313 259.833 167.012 259.544 167.528 259.028C168.044 258.512 168.334 257.813 168.334 257.083C168.334 256.354 168.044 255.655 167.528 255.139C167.012 254.623 166.313 254.333 165.584 254.333ZM178.417 254.333C177.688 254.333 176.988 254.623 176.472 255.139C175.957 255.655 175.667 256.354 175.667 257.083C175.667 257.813 175.957 258.512 176.472 259.028C176.988 259.544 177.688 259.833 178.417 259.833C179.146 259.833 179.846 259.544 180.362 259.028C180.877 258.512 181.167 257.813 181.167 257.083C181.167 256.354 180.877 255.655 180.362 255.139C179.846 254.623 179.146 254.333 178.417 254.333Z" fill="#86885E"/>
</svg>
