<svg width="973" height="527" viewBox="0 0 973 527" fill="none" xmlns="http://www.w3.org/2000/svg">
<g filter="url(#filter0_f_2599_3054)">
<rect x="145.07" y="384.787" width="121.866" height="3.91308" rx="1.95654" fill="black"/>
</g>
<g clip-path="url(#clip0_2599_3054)">
<path d="M206.002 387.003C206.002 387.003 126.9 283.833 126.9 240.101C126.9 229.713 128.946 219.427 132.922 209.83C136.897 200.233 142.723 191.513 150.069 184.168C157.414 176.823 166.134 170.996 175.731 167.021C185.328 163.046 195.614 161 206.002 161C216.389 161 226.675 163.046 236.272 167.021C245.869 170.996 254.589 176.823 261.935 184.168C269.28 191.513 275.106 200.233 279.082 209.83C283.057 219.427 285.103 229.713 285.103 240.101C285.103 283.833 206.002 387.003 206.002 387.003ZM206.002 262.702C211.996 262.702 217.744 260.32 221.982 256.082C226.221 251.844 228.602 246.095 228.602 240.101C228.602 234.107 226.221 228.359 221.982 224.12C217.744 219.882 211.996 217.501 206.002 217.501C200.008 217.501 194.259 219.882 190.021 224.12C185.782 228.359 183.401 234.107 183.401 240.101C183.401 246.095 185.782 251.844 190.021 256.082C194.259 260.32 200.008 262.702 206.002 262.702Z" fill="url(#paint0_linear_2599_3054)"/>
<path fill-rule="evenodd" clip-rule="evenodd" d="M206.002 199.445C202.505 199.445 199.152 200.837 196.679 203.314C194.207 205.792 192.818 209.152 192.818 212.656V216.43H219.185V212.656C219.185 209.152 217.796 205.792 215.324 203.314C212.851 200.837 209.498 199.445 206.002 199.445ZM230.485 216.43V212.656C230.485 206.149 227.906 199.908 223.314 195.307C218.723 190.706 212.495 188.121 206.002 188.121C199.508 188.121 193.281 190.706 188.689 195.307C184.097 199.908 181.518 206.149 181.518 212.656V216.43H173.984C168.975 216.43 164.515 219.737 163.144 224.621C159.927 236.096 157.034 248.68 157.034 264.39C157.034 270.791 159.181 276.385 163.159 280.62C167.114 284.825 172.651 287.46 179.062 288.441C185.97 289.498 194.536 290.253 206.002 290.253C217.467 290.253 226.033 289.498 232.941 288.441C239.352 287.46 244.889 284.818 248.837 280.62C252.829 276.385 254.969 270.791 254.969 264.39C254.969 248.688 252.076 236.088 248.859 224.621C248.194 222.255 246.774 220.173 244.817 218.693C242.859 217.212 240.471 216.415 238.019 216.423L230.485 216.43Z" fill="black"/>
<ellipse cx="178.021" cy="264.368" rx="6.99524" ry="6.99524" fill="#3BDA43"/>
<ellipse cx="206.001" cy="264.368" rx="6.99524" ry="6.99524" fill="#3BDA43"/>
<ellipse cx="233.984" cy="264.368" rx="6.99524" ry="6.99524" fill="#3BDA43"/>
</g>
<path d="M356.878 212.281C353.012 212.281 349.77 210.972 347.151 208.353C344.532 205.734 343.223 202.492 343.223 198.626C343.223 194.761 344.532 191.518 347.151 188.9C349.77 186.281 353.012 184.972 356.878 184.972C360.619 184.972 363.798 186.281 366.417 188.9C369.036 191.518 370.345 194.761 370.345 198.626C370.345 202.492 369.036 205.734 366.417 208.353C363.798 210.972 360.619 212.281 356.878 212.281ZM367.352 349.201C367.352 359.302 364.796 366.597 359.683 371.086C354.695 375.7 347.4 378.007 337.799 378.007H326.763V360.05H334.058C338.422 360.05 341.477 359.177 343.223 357.432C345.093 355.81 346.029 353.067 346.029 349.201V225.936H367.352V349.201ZM406.197 212.281C402.332 212.281 399.089 210.972 396.471 208.353C393.852 205.734 392.543 202.492 392.543 198.626C392.543 194.761 393.852 191.518 396.471 188.9C399.089 186.281 402.332 184.972 406.197 184.972C409.938 184.972 413.118 186.281 415.737 188.9C418.356 191.518 419.665 194.761 419.665 198.626C419.665 202.492 418.356 205.734 415.737 208.353C413.118 210.972 409.938 212.281 406.197 212.281ZM416.672 225.936V329H395.348V225.936H416.672ZM455.517 212.281C451.651 212.281 448.409 210.972 445.791 208.353C443.172 205.734 441.862 202.492 441.862 198.626C441.862 194.761 443.172 191.518 445.791 188.9C448.409 186.281 451.651 184.972 455.517 184.972C459.258 184.972 462.438 186.281 465.057 188.9C467.675 191.518 468.985 194.761 468.985 198.626C468.985 202.492 467.675 205.734 465.057 208.353C462.438 210.972 459.258 212.281 455.517 212.281ZM465.992 225.936V329H444.668V225.936H465.992ZM486.88 277C486.88 266.65 489 257.485 493.24 249.504C497.604 241.523 503.465 235.35 510.822 230.986C518.304 226.497 526.597 224.252 535.7 224.252C542.434 224.252 549.043 225.749 555.527 228.741C562.136 231.609 567.374 235.475 571.24 240.338V190.583H592.75V329H571.24V313.475C567.748 318.463 562.885 322.578 556.65 325.82C550.539 329.062 543.494 330.683 535.513 330.683C526.535 330.683 518.304 328.439 510.822 323.95C503.465 319.336 497.604 312.976 493.24 304.871C489 296.64 486.88 287.35 486.88 277ZM571.24 277.374C571.24 270.266 569.743 264.094 566.75 258.856C563.882 253.619 560.079 249.629 555.34 246.885C550.602 244.142 545.489 242.77 540.002 242.77C534.515 242.77 529.403 244.142 524.664 246.885C519.926 249.504 516.06 253.432 513.067 258.669C510.199 263.782 508.765 269.892 508.765 277C508.765 284.108 510.199 290.343 513.067 295.705C516.06 301.067 519.926 305.182 524.664 308.05C529.527 310.794 534.64 312.166 540.002 312.166C545.489 312.166 550.602 310.794 555.34 308.05C560.079 305.307 563.882 301.317 566.75 296.079C569.743 290.717 571.24 284.482 571.24 277.374ZM613.65 277C613.65 266.65 615.77 257.485 620.01 249.504C624.374 241.523 630.235 235.35 637.592 230.986C645.074 226.497 653.305 224.252 662.283 224.252C670.389 224.252 677.434 225.873 683.42 229.115C689.53 232.233 694.393 236.161 698.01 240.9V225.936H719.52V329H698.01V313.662C694.393 318.525 689.468 322.578 683.233 325.82C676.998 329.062 669.89 330.683 661.909 330.683C653.055 330.683 644.95 328.439 637.592 323.95C630.235 319.336 624.374 312.976 620.01 304.871C615.77 296.64 613.65 287.35 613.65 277ZM698.01 277.374C698.01 270.266 696.513 264.094 693.52 258.856C690.652 253.619 686.849 249.629 682.11 246.885C677.372 244.142 672.259 242.77 666.772 242.77C661.285 242.77 656.173 244.142 651.434 246.885C646.696 249.504 642.83 253.432 639.837 258.669C636.969 263.782 635.535 269.892 635.535 277C635.535 284.108 636.969 290.343 639.837 295.705C642.83 301.067 646.696 305.182 651.434 308.05C656.297 310.794 661.41 312.166 666.772 312.166C672.259 312.166 677.372 310.794 682.11 308.05C686.849 305.307 690.652 301.317 693.52 296.079C696.513 290.717 698.01 284.482 698.01 277.374ZM740.42 277C740.42 266.65 742.54 257.485 746.78 249.504C751.144 241.523 757.005 235.35 764.362 230.986C771.844 226.497 780.075 224.252 789.053 224.252C797.159 224.252 804.204 225.873 810.19 229.115C816.3 232.233 821.163 236.161 824.78 240.9V225.936H846.29V329H824.78V313.662C821.163 318.525 816.238 322.578 810.003 325.82C803.768 329.062 796.66 330.683 788.679 330.683C779.825 330.683 771.72 328.439 764.362 323.95C757.005 319.336 751.144 312.976 746.78 304.871C742.54 296.64 740.42 287.35 740.42 277ZM824.78 277.374C824.78 270.266 823.283 264.094 820.29 258.856C817.422 253.619 813.619 249.629 808.88 246.885C804.142 244.142 799.029 242.77 793.542 242.77C788.055 242.77 782.943 244.142 778.204 246.885C773.466 249.504 769.6 253.432 766.607 258.669C763.739 263.782 762.305 269.892 762.305 277C762.305 284.108 763.739 290.343 766.607 295.705C769.6 301.067 773.466 305.182 778.204 308.05C783.067 310.794 788.18 312.166 793.542 312.166C799.029 312.166 804.142 310.794 808.88 308.05C813.619 305.307 817.422 301.317 820.29 296.079C823.283 290.717 824.78 284.482 824.78 277.374Z" fill="black"/>
<rect x="342.229" y="184.375" width="29.2265" height="29.2265" rx="14.6133" fill="white"/>
<rect x="391.914" y="184.375" width="29.2265" height="29.2265" rx="14.6133" fill="#31BF38"/>
<rect x="441.6" y="184.375" width="29.2265" height="29.2265" rx="14.6133" fill="white"/>
<defs>
<filter id="filter0_f_2599_3054" x="122.71" y="362.427" width="166.587" height="48.6343" filterUnits="userSpaceOnUse" color-interpolation-filters="sRGB">
<feFlood flood-opacity="0" result="BackgroundImageFix"/>
<feBlend mode="normal" in="SourceGraphic" in2="BackgroundImageFix" result="shape"/>
<feGaussianBlur stdDeviation="11.1803" result="effect1_foregroundBlur_2599_3054"/>
</filter>
<linearGradient id="paint0_linear_2599_3054" x1="206.002" y1="161" x2="206.002" y2="387.003" gradientUnits="userSpaceOnUse">
<stop stop-color="#3BDA43"/>
<stop offset="1" stop-color="#0D6412"/>
</linearGradient>
<clipPath id="clip0_2599_3054">
<rect width="226.006" height="226.003" fill="white" transform="translate(93 161)"/>
</clipPath>
</defs>
</svg>
